<?xml version="1.0" encoding="utf-8"?>
<!-- Generator: Adobe Illustrator 19.0.0, SVG Export Plug-In . SVG Version: 6.00 Build 0)  -->
<svg version="1.1" id="Layer_1" xmlns="http://www.w3.org/2000/svg" xmlns:xlink="http://www.w3.org/1999/xlink" x="0px" y="0px"
	 viewBox="-55 147 500 500" style="enable-background:new -55 147 500 500;" xml:space="preserve">
<style type="text/css">
	.st0{clip-path:url(#SVGID_5_);}
	.st1{clip-path:url(#SVGID_6_);fill:url(#SVGID_7_);}
	.st2{fill:#00BDD5;}
	.st3{fill:#58595B;}
	.st4{fill:#F27EAB;}
</style>
<g>
	<g>
		<g>
			<g>
				<g>
					<g>
						<defs>
							<polygon id="SVGID_1_" points="-54,148 -53,148 -54,149 							"/>
						</defs>
						<clipPath id="SVGID_2_">
							<use xlink:href="#SVGID_1_"  style="overflow:visible;"/>
						</clipPath>
					</g>
					<g>
						<defs>
							<polygon id="SVGID_3_" points="-54,148 -53,148 -54,149 							"/>
						</defs>
						<defs>
							<polygon id="SVGID_4_" points="-56,146 -57,146 -56,145 							"/>
						</defs>
						<clipPath id="SVGID_5_">
							<use xlink:href="#SVGID_3_"  style="overflow:visible;"/>
						</clipPath>
						<clipPath id="SVGID_6_" class="st0">
							<use xlink:href="#SVGID_4_"  style="overflow:visible;"/>
						</clipPath>
						
							<linearGradient id="SVGID_7_" gradientUnits="userSpaceOnUse" x1="194.9339" y1="1230.9" x2="194.9339" y2="873.7" gradientTransform="matrix(1 0 0 1 0 -290)">
							<stop  offset="0" style="stop-color:#000000"/>
							<stop  offset="0.4601" style="stop-color:#020202"/>
							<stop  offset="0.6259" style="stop-color:#090909"/>
							<stop  offset="0.744" style="stop-color:#141414"/>
							<stop  offset="0.8395" style="stop-color:#252525"/>
							<stop  offset="0.9204" style="stop-color:#3B3B3B"/>
							<stop  offset="0.9917" style="stop-color:#565656"/>
							<stop  offset="1" style="stop-color:#595959"/>
						</linearGradient>
						<path class="st1" d="M331.4,870.7c-2.4-27.4-12.2-54.7-20.9-78.7c-6.5-18-12.6-35.1-13.6-47.3c-3.6-45.2-6.4-69.2-10.7-94.9
							c-7.4-43.4-29.9-66.1-48.3-66.1c-11.7,0-23.5,9.5-23.8,30.7c-0.1,8.3,0,16.5,0.1,24.5c0.3,27.7,0.7,56.3-8.2,65.8
							c-1.5,1.6-4.1,3.7-9.9,3.7h-2.3c-5.8,0-8.4-2.1-9.9-3.7c-8.8-9.5-8.5-38.1-8.2-65.8c0.1-8,0.2-16.2,0.1-24.5
							c-0.2-21.2-12.1-30.7-23.8-30.7c-18.4,0-40.9,22.7-48.3,66.1c-4.4,25.7-7.1,49.7-10.7,94.9c-1,12.2-7.1,29.2-13.6,47.3
							c-8.6,24-18.5,51.3-20.9,78.7c-2.4,27.7,2,49.2,31.3,63.7c8.7,4.3,18.9,6.5,30.1,6.5c15.4,0,30-4.2,38.6-6.7l2.2-0.6
							c13.7-3.9,16.2-4.6,33.3-4.7h1.9c17,0.1,19.5,0.8,33.2,4.7l2.2,0.6c8.7,2.5,23.2,6.7,38.6,6.7c11.2,0,21.3-2.2,30.1-6.6
							C329.4,919.9,333.7,898.4,331.4,870.7z M291.4,915c-6.1,3-13.2,4.5-21.4,4.5c-12.7,0-25.1-3.6-33.3-6l-2.3-0.7
							c-15.2-4.3-19.6-5.4-38.5-5.4h-2c-14.9,0.1-20.8,0.7-30,3.1c-3.5-3-6.7-7.3-7.8-13.6c-2.9-16,26.4-37.3,5.7-59.9
							c-20.1-21.7-46.1-14.2-69.4-3.5c-2.4,1.1-4.5,2.3-6.5,3.5c3.7-12.9,8.2-25.6,12.5-37.4c7.4-20.3,13.6-37.9,14.8-53.1
							c3.6-44.5,6.3-68,10.4-93c5.8-33.8,21.5-48.4,28.3-48.4c3.3,0,3.5,9.1,3.5,9.5c0.1,8,0,16.1-0.1,24c-0.4,35-0.8,65.2,14,81.1
							c6.2,6.7,14.4,10.1,24.3,10.2h2.4c10-0.1,18.2-3.5,24.4-10.2c14.8-15.9,14.5-46.1,14-81.1c-0.1-7.8-0.2-15.9-0.1-24
							c0-0.4,0.1-9.5,3.5-9.5c6.8,0,22.6,14.6,28.2,48.4c4.3,25,6.9,48.5,10.4,93c1.2,15.2,7.6,32.7,14.8,53.1
							c8.1,22.8,17.5,48.6,19.6,73.1C313.2,896.9,308.8,906.4,291.4,915z"/>
					</g>
				</g>
			</g>
		</g>
	</g>
	<path class="st2" d="M152.9,222c-14.1-3.8-16.6-4.8-33.6-5.3c-10.6-0.3-20.8,2.6-29.5,6.9c-29.3,14.5-33.7,36-31.3,63.7
		c0.5,5.2,1.2,10.4,2.1,15.6l25.2,18c2,1.2,4.1,2.4,6.5,3.5c23.3,10.7,49.4,18.2,69.4-3.5c20.8-22.5-8.4-43.9-5.7-59.9
		c1.1-6.3,2.7-6.6,9-15.9c6.4-9.3,12-17.1,12-17.1S165,225.3,152.9,222z"/>
	<path class="st3" d="M300.1,223.5c-8.7-4.3-18.9-6.5-30-6.5c-15.4,0-29.9,4.2-38.5,6.7l-2.2,0.6c-13.7,3.9-16.2,4.6-33.2,4.7h-2
		c-4.7,5.4-10.9,13.1-14.8,20.5c3.9,0.3,8.4,0.5,14.6,0.5h2c19.1-0.1,23.3-1.1,38.6-5.5l2.3-0.7c8.2-2.4,20.7-6,33.4-6
		c8.1,0,15.4,1.5,21.5,4.5c17.4,8.6,21.9,18.2,19.8,42.4c-2.2,24.6-11.4,50.5-19.7,73.3c-7.4,20.4-13.6,38-14.9,53.2
		c-3.6,44.6-6.3,68.1-10.5,93.2c-5.8,33.9-21.6,48.5-28.3,48.5c-3.3,0-3.5-9.2-3.5-9.6c-0.1-8,0-16.2,0.1-24
		c0.4-35.1,0.8-65.4-14.1-81.3c-6.3-6.7-14.4-10.1-24.4-10.2H194c0,0-18.2,3.3-24.3,10c-14.8,15.9-14.5,46.1-14,81.1
		c0.1,7.8,0.2,15.9,0.1,24c0,0.4-0.1,9.5-3.5,9.5c-6.8,0-22.6-14.6-28.3-48.4c-4.3-25-6.9-48.4-10.4-92.9
		c-1.2-15.2-7.6-32.7-14.8-53.1c-1.9-5.2-3.8-10.5-5.6-15.9c-9.7-4.8-18.8-9.7-25.9-13.8c3.8,13,8.2,25.5,12.5,37.3
		c6.5,18.1,12.6,35.1,13.6,47.3c3.7,45.3,6.4,69.2,10.7,94.9c7.4,43.4,29.9,66.1,48.3,66.1c11.7,0,23.5-9.5,23.8-30.7
		c0.1-8.3,0-16.5-0.1-24.5c-0.3-27.7-0.7-56.3,8.2-65.8c1.5-1.6,9.9-4,9.9-4h2.4c5.9,0,8.4,2.1,9.9,3.7c8.8,9.5,8.5,38.1,8.2,65.7
		c-0.1,7.9-0.2,16.2-0.1,24.4c0.2,21.2,12.1,30.7,23.7,30.7c18.4,0,40.8-22.7,48.2-65.9c4.4-25.7,7.1-49.6,10.7-94.7
		c1-12.1,7.1-29.2,13.5-47.2c8.6-24,18.4-51.2,20.8-78.6C333.6,259.4,329.3,238,300.1,223.5z"/>
</g>
<g>
	<g>
		<path class="st3" d="M121.6,340.7c11.5,4.6,29.4,16.8,49.4,20c14.2,5,31.2,6.4,46,2c7.3-2.2,28-6.3,33.5-11.7
			c2.7-2.7-5.5-0.1-2.5-2.3c1.3-0.9-1.5,0.5,0,0c1.4-0.4-1.3-0.5,0,0c-1.6,3.2-1.6,3.2,0,10c-5-33.4-0.3,15.4-1,30
			c-2,20.4,2.8,36.2,0.8,56.6c-0.2,2.6-0.5,5-0.7,7.5c-0.1,1.6-1.9,111.8-1.2,113.1c5.6,11.5,12.5-90,12.1-110.1
			c2.1-20.8-0.9-44.7,1.1-65.5c1-10.4,2.1-20.9,3.1-31.3c0.7-7.4,2.6-16.9-1.7-23.4c-2.1-3.2-5.6-5.3-9.3-5.5c-3.6,0-7,1.8-9.9,4
			c-6.2,4.7-10.7,11.3-17.6,15.1c-13.1,7.3-29.4,5.3-43.1,1.2c-17.4-5.2-33.8-14-52.1-15.5c-2.2-0.2-4.5-0.2-6.8-0.1
			C117.7,334.7,117.7,340.7,121.6,340.7L121.6,340.7z"/>
	</g>
</g>
<g>
	<g>
		<path class="st3" d="M118.7,337.2c2.9,31.9,6,63.9,8.9,95.8c1.4,16,2.9,31.9,4.3,47.9c1.4,14.9,1.9,29.9,4.6,44.9
			c2.7,15.3,8.9,31,28,44.4c3.9,2.8,14.5,0.3,10.4-2.5c-16.4-11.5-22.7-24.9-25.6-38c-3.4-14.7-3.6-29.5-5.1-44.2
			c-2.9-31.6-5.8-63.2-8.9-94.8c-1.7-17.8,3.6-44.2-5.1-53.4C130.3,334,118.3,334,118.7,337.2L118.7,337.2z"/>
	</g>
</g>
<path class="st4" d="M113.3,562.5c-2,3.1-2.9,6.8-3.4,10.4c-0.5,3.5-0.7,7.3,0.9,10.5c1,2,2.7,3.7,4.3,5.3
	c6.6,6.4,13.6,13,22.5,15.2c3.7,0.9,7.6,0.9,11.4,0.8c13-0.5,26.9-3.7,35.3-13.5c7.1-8.3,9-20.7,4.8-30.7c-1.5-3.6-4-7.1-7.7-8.4
	c-2.3-0.8-5.1-0.6-6.7,1.2c-0.8,0.9-1.2,2.1-1.6,3.3c-2.9,7.3-9.5,13-17.1,14.7s-16.1-0.6-21.8-5.9c-3-2.8-6.4-8.5-10.9-8.9
	C119.6,556.1,115.2,559.6,113.3,562.5z"/>
</svg>
