<?xml version="1.0" encoding="utf-8"?>
<!-- Generator: Adobe Illustrator 19.0.0, SVG Export Plug-In . SVG Version: 6.00 Build 0)  -->
<svg version="1.1" id="Layer_1" xmlns="http://www.w3.org/2000/svg" xmlns:xlink="http://www.w3.org/1999/xlink" x="0px" y="0px"
	 viewBox="-55 147 500 500" style="enable-background:new -55 147 500 500;" xml:space="preserve">
<style type="text/css">
	.st0{clip-path:url(#SVGID_5_);}
	.st1{clip-path:url(#SVGID_6_);fill:url(#SVGID_7_);}
	.st2{fill:#58595B;}
	.st3{fill:#00BDD5;}
</style>
<g>
	<g>
		<g>
			<g>
				<g>
					<defs>
						<polygon id="SVGID_1_" points="-135.4,118.5 -134.2,118.5 -135.4,119.7 						"/>
					</defs>
					<clipPath id="SVGID_2_">
						<use xlink:href="#SVGID_1_"  style="overflow:visible;"/>
					</clipPath>
				</g>
				<g>
					<defs>
						<polygon id="SVGID_3_" points="-135.4,118.5 -134.2,118.5 -135.4,119.7 						"/>
					</defs>
					<defs>
						<polygon id="SVGID_4_" points="-137.8,116.2 -139,116.2 -137.8,115 						"/>
					</defs>
					<clipPath id="SVGID_5_">
						<use xlink:href="#SVGID_3_"  style="overflow:visible;"/>
					</clipPath>
					<clipPath id="SVGID_6_" class="st0">
						<use xlink:href="#SVGID_4_"  style="overflow:visible;"/>
					</clipPath>
					
						<linearGradient id="SVGID_7_" gradientUnits="userSpaceOnUse" x1="159.5461" y1="-2708.5" x2="159.5461" y2="-2295.7002" gradientTransform="matrix(1 0 0 -1 0 -1704)">
						<stop  offset="0" style="stop-color:#000000"/>
						<stop  offset="0.4601" style="stop-color:#020202"/>
						<stop  offset="0.6259" style="stop-color:#090909"/>
						<stop  offset="0.744" style="stop-color:#141414"/>
						<stop  offset="0.8395" style="stop-color:#252525"/>
						<stop  offset="0.9204" style="stop-color:#3B3B3B"/>
						<stop  offset="0.9917" style="stop-color:#565656"/>
						<stop  offset="1" style="stop-color:#595959"/>
					</linearGradient>
					<path class="st1" d="M298.6,930.2c-8.6,4.2-18.6,6.3-29.6,6.3c-15.2,0-29.5-4.1-38.1-6.4l-2.1-0.6c-13.6-3.7-16-4.4-32.7-4.6
						h-1.9c-16.8,0.1-19.2,0.7-32.8,4.6l-2.1,0.6c-8.6,2.5-22.9,6.4-38.1,6.4c-1.2,0-2.4-0.1-3.6-0.2c0.2-7.8,2.4-14.4,6.7-20.6
						c11.3-0.5,22.3-3.5,29.7-5.6l2.3-0.6c15-4.2,19.2-5.1,38-5.3h1.9c18.7,0.1,22.9,1.1,38,5.3l2.3,0.6c8.1,2.3,20.3,5.7,32.8,5.7
						c8,0,15.2-1.5,21.1-4.3c17.1-8.3,21.5-17.4,19.5-40.8c-2.1-23.6-11.2-48.6-19.3-70.6c-7.2-19.7-13.4-36.6-14.7-51.3
						c-3.5-43-6.1-65.7-10.3-89.8c-5.7-32.7-21.3-46.8-27.8-46.8c-3.2,0-3.5,8.8-3.5,9.2c-0.1,7.7,0,15.6,0.1,23.2
						c0.4,33.8,0.7,63-13.9,78.3c-6.1,6.4-14.2,9.7-24.1,9.8H194c-9.8-0.1-17.9-3.4-24-9.8c-14.6-15.3-14.2-44.6-13.9-78.3
						c0.1-7.6,0.2-15.4,0.1-23.2c0-0.4-0.1-9.2-3.5-9.2c-6.7,0-22.2,14.2-27.8,46.8c-4.2,24.1-6.8,46.8-10.3,89.8
						c-1.2,14.6-7.4,31.6-14.6,51.3c-7,19.2-14.9,40.6-18.2,61.6c-5.1-4.7-10.4-11.2-16.4-20c4.2-17.1,10.3-33.6,15.8-48.8
						c6.4-17.4,12.4-33.9,13.4-45.6c3.6-43.7,6.2-66.8,10.5-91.8c7.3-41.9,29.5-63.8,47.6-63.8c11.5,0,23.3,9.1,23.5,29.7
						c0.1,8,0,15.9-0.1,23.6c-0.4,26.7-0.7,54.3,8.1,63.6c1.4,1.5,4.1,3.5,9.8,3.6h2.3c5.7,0,8.4-2.1,9.8-3.6
						c8.7-9.2,8.5-36.9,8.1-63.6c-0.1-7.7-0.2-15.7-0.1-23.6c0.2-20.5,11.9-29.7,23.5-29.7c18.2,0,40.4,21.9,47.6,63.8
						c4.3,24.8,6.9,48,10.5,91.8c1,11.8,7,28.2,13.4,45.6c8.5,23.3,18.2,49.5,20.5,76.1C331.8,895.4,327.5,916.2,298.6,930.2z
						 M123.3,1004.5c-27.9-82.9-24.4-93,48.1-138.8c-80.2,28.8-90,25.3-134.3-49.6C65,899,61.5,909.1-11,954.9
						C69.1,926,78.9,929.6,123.3,1004.5z"/>
				</g>
			</g>
		</g>
	</g>
	<path class="st2" d="M329.4,304.6c-2.4,26.5-12.1,52.8-20.5,76.1c-6.4,17.4-12.4,33.9-13.4,45.6c-3.6,43.8-6.2,66.8-10.6,91.8
		c-7.3,41.9-29.5,63.9-47.6,63.9c-11.6,0-23.3-9.1-23.5-29.7c-0.1-8,0-15.9,0.1-23.6c0.4-26.7,0.7-54.3-8.1-63.6
		c-1.4-1.5-4.1-3.5-9.8-3.6h-2.3c0,0-8.4,2.1-9.8,3.6c-8.7,9.2-8.5,36.9-8.1,63.6c0.1,7.7,0.2,15.7,0.1,23.6
		c-0.2,20.5-11.9,29.7-23.5,29.7c-18.2,0-40.4-21.9-47.6-63.8c-4.3-24.8-7-48-10.5-91.8c-1-11.7-7-28.2-13.4-45.6
		C75.3,365.6,69.3,349,65.1,332c6-8.8,11.2-15.3,16.4-20c3.3,20.8,11.1,42.4,18.2,61.6c7.2,19.7,13.4,36.6,14.6,51.3
		c3.5,43,6.1,65.7,10.3,89.8c5.7,32.7,21.3,46.8,27.8,46.8c3.2,0,3.5-8.8,3.5-9.2c0.1-7.7,0-15.6-0.1-23.2
		c-0.4-33.8-0.7-63,13.9-78.3c6.1-6.4,24-9,24-9h2.1c9.9,0.1,18,3.4,24.1,9.8c14.7,15.4,14.3,44.7,13.9,78.7
		c-0.1,7.6-0.2,15.4-0.1,23.2c0,0.4,0.1,9.2,3.5,9.2c6.7,0,22.2-14.2,27.9-46.9c4.2-24.2,6.8-46.9,10.4-90.1
		c1.2-14.7,7.4-31.7,14.7-51.4c8.1-22.1,17.3-47.1,19.3-70.8c2-23.4-2.3-32.7-19.5-41c-6-2.9-13.1-4.3-21.1-4.3
		c-12.5,0-24.8,3.5-33,5.7l-2.3,0.6c-15,4.2-19.3,5.3-38.1,5.3h-1.1c-19.1-0.1-23.4-1.1-38.6-5.4l-2.3-0.7
		c-7.5-2.1-18.6-5.3-30.2-5.7c-4.4-6.3-6.4-13-6.8-21c1.2,0,2.4-0.2,3.7-0.2c15.4,0,30.1,4.1,38.8,6.6l2.3,0.6
		c13.7,3.9,16.2,4.6,33.3,4.6h1.2c16.7-0.1,19.2-0.7,32.7-4.6l2.1-0.6c8.6-2.5,22.9-6.4,38.1-6.4c11,0,21,2.1,29.6,6.3
		C327.5,257.1,331.8,277.8,329.4,304.6z"/>
	<path class="st3" d="M-11.1,218.5c72.5,45.8,75.9,55.9,48.1,138.8c44.3-74.9,54.1-78.5,134.3-49.6c-72.5-45.8-75.9-55.9-48.1-138.8
		C78.9,243.7,69.1,247.4-11.1,218.5z"/>
</g>
</svg>
