<?xml version="1.0" encoding="utf-8"?>
<!-- Generator: Adobe Illustrator 24.1.2, SVG Export Plug-In . SVG Version: 6.00 Build 0)  -->
<svg version="1.1" id="Layer_1" xmlns="http://www.w3.org/2000/svg" xmlns:xlink="http://www.w3.org/1999/xlink" x="0px" y="0px"
	 viewBox="0 0 500 500" style="enable-background:new 0 0 500 500;" xml:space="preserve">
<style type="text/css">
	.st0{clip-path:url(#SVGID_5_);}
	.st1{clip-path:url(#SVGID_6_);fill:url(#SVGID_7_);}
	.st2{fill:#58595B;}
	.st3{fill:#00BDD5;}
</style>
<g>
	<g>
		<g>
			<g>
				<g>
					<defs>
						<polygon id="SVGID_1_" points="-46.4,-26.6 -45.1,-26.6 -46.4,-25.5 						"/>
					</defs>
					<clipPath id="SVGID_2_">
						<use xlink:href="#SVGID_1_"  style="overflow:visible;"/>
					</clipPath>
				</g>
				<g>
					<defs>
						<polygon id="SVGID_3_" points="-46.4,-26.6 -45.1,-26.6 -46.4,-25.5 						"/>
					</defs>
					<defs>
						<polygon id="SVGID_4_" points="-48.8,-28.9 -50,-28.9 -48.8,-30 						"/>
					</defs>
					<clipPath id="SVGID_5_">
						<use xlink:href="#SVGID_3_"  style="overflow:visible;"/>
					</clipPath>
					<clipPath id="SVGID_6_" class="st0">
						<use xlink:href="#SVGID_4_"  style="overflow:visible;"/>
					</clipPath>
					
						<linearGradient id="SVGID_7_" gradientUnits="userSpaceOnUse" x1="255.8964" y1="-309.0629" x2="255.8964" y2="58.6014" gradientTransform="matrix(1 0 0 -1 0 502)">
						<stop  offset="0" style="stop-color:#000000"/>
						<stop  offset="0.4601" style="stop-color:#020202"/>
						<stop  offset="0.6259" style="stop-color:#090909"/>
						<stop  offset="0.744" style="stop-color:#141414"/>
						<stop  offset="0.8395" style="stop-color:#252525"/>
						<stop  offset="0.9204" style="stop-color:#3B3B3B"/>
						<stop  offset="0.9917" style="stop-color:#565656"/>
						<stop  offset="1" style="stop-color:#595959"/>
					</linearGradient>
					<path class="st1" d="M397.7,738.8c-2.5-28.2-12.6-56.3-21.7-81c-6.8-18.6-13.1-36.1-14.1-48.7c-3.8-46.5-6.6-71.2-11.2-97.7
						c-7.6-44.6-31.1-68-50.3-68c-12.1,0-24.5,9.7-24.8,31.7c-0.1,8.5,0,17,0.1,25.2c0.4,28.4,0.7,57.8-8.5,67.7
						c-1.6,1.7-4.2,3.8-10.3,3.8h-2.3c-6.1,0-8.7-2.2-10.3-3.8c-9.2-9.8-8.9-39.3-8.5-67.7c0.1-8.2,0.2-16.7,0.1-25.2
						c-0.2-21.8-12.6-31.7-24.8-31.7c-19.2,0-42.5,23.4-50.3,68c-4.6,26.5-7.4,51.1-11.2,97.7c-1,12.5-7.4,30.1-14.1,48.7
						c-9,24.7-19.2,52.8-21.6,81c-2.5,28.5,2.1,50.6,32.5,65.6c9.1,4.5,19.7,6.7,31.2,6.7c16,0,31.2-4.4,40.2-6.9l2.3-0.7
						c14.3-4,16.9-4.8,34.6-4.8h1.9c17.6,0.1,20.3,0.8,34.5,4.8l2.3,0.7c9,2.6,24.2,6.9,40.2,6.9c11.7,0,22.1-2.2,31.2-6.7
						C395.6,789.4,400.2,767.3,397.7,738.8z M145.2,695.5l37.4,0.2l11.8,38l41.6,14.1l-1.5,29.8c-6.1,0.8-11.3,2.2-19.7,4.6
						l-2.4,0.7c-8.5,2.5-21.5,6.2-34.6,6.2c-8.5,0-16-1.6-22.2-4.6c-18.1-8.8-22.7-18.6-20.4-43.5
						C136.5,725.8,140.5,710.4,145.2,695.5z M356.2,784.3c-6.3,3.1-13.7,4.6-22.2,4.6c-13.2,0-26.1-3.7-34.6-6.2l-2.4-0.7
						c-15.8-4.5-20.3-5.5-40.1-5.6h-1.2l2.2-44.5l-46.7-15.8l-13.2-42.5l-45.3-0.3c1-2.7,1.9-5.3,2.8-7.8
						c7.6-20.9,14.2-38.9,15.4-54.6c3.8-45.8,6.4-69.9,10.9-95.7c5.9-34.8,22.3-49.8,29.4-49.8c3.4,0,3.6,9.4,3.6,9.8
						c0.1,8.3,0,16.6-0.1,24.6c-0.5,36-0.8,67.1,14.6,83.5c6.4,6.8,14.9,10.4,25.4,10.4h2.5c10.4-0.1,18.9-3.6,25.4-10.4
						c15.4-16.3,15.1-47.4,14.6-83.5c-0.1-8.1-0.2-16.4-0.1-24.6c0-0.4,0.1-9.8,3.6-9.8c7,0,23.4,15,29.4,49.8
						c4.5,25.7,7.2,49.9,10.9,95.7c1.2,15.6,7.8,33.7,15.4,54.6c8.5,23.4,18.2,50,20.4,75.2C378.9,765.6,374.2,775.5,356.2,784.3z"
						/>
				</g>
			</g>
		</g>
	</g>
	<path class="st2" d="M397.9,138.6c-2.5,28.2-12.6,56.3-21.7,81c-6.8,18.6-13.1,36.1-14.1,48.7c-3.8,46.5-6.6,71.3-11.2,97.7
		c-7.6,44.6-31.1,68-50.3,68c-12.1,0-24.5-9.7-24.8-31.7c-0.1-8.5,0-17,0.1-25.2c0.4-28.4,0.7-58-8.5-67.7
		c-1.6-1.7-4.2-3.8-10.3-3.8h-2.3c-6.1,0-8.7,2.2-10.3,3.8c-9.2,9.8-8.9,39.3-8.5,67.7c0.1,8.2,0.2,16.7,0.1,25.2
		c-0.2,21.8-12.6,31.7-24.8,31.7c-19.2,0-42.5-23.4-50.3-68c-4.6-26.5-7.4-51.1-11.2-97.7c-1-12.5-7.4-30.1-14.1-48.7
		c-0.6-1.6-1.1-3.1-1.7-4.7h23.1c7,19.5,13,36.5,14.2,51.2c3.6,45.7,6.4,69.6,10.8,95.2c5.9,34.7,22.2,49.7,29.3,49.7
		c3.4,0,3.5-9.4,3.5-9.7c0.1-8.2,0-16.6-0.1-24.5c-0.4-35.8-0.8-66.8,14.6-83.1c6.4-6.8,14.9-10.3,25.2-10.4h2.4
		c10.3,0.1,18.8,3.6,25.2,10.4c15.3,16.3,14.9,47.3,14.6,83.1c-0.1,8.1-0.2,16.3-0.1,24.5c0,0.4,0.1,9.7,3.5,9.7
		c7,0,23.3-15,29.3-49.6c4.4-25.6,7.2-49.7,10.8-95.2c1.2-15.6,7.8-33.6,15.4-54.4c8.5-23.4,18.1-49.8,20.3-75
		c2.2-24.8-2.4-34.6-20.4-43.4c-6.2-3-13.7-4.6-22.1-4.6c-13.1,0-26,3.7-34.5,6.2l-2.3,0.7c-13.2,3.7-18.6,5-31.4,5.5V78.6
		c10.6-0.3,14.4-1.5,26.1-4.7l2.3-0.7c9.1-2.6,24.2-6.9,40.2-6.9c11.7,0,22.1,2.2,31.2,6.7C395.9,88,400.5,110.1,397.9,138.6z"/>
	<path class="st3" d="M197.6,202.7h-68.3c-7.2-20.4-13.8-42.4-15.8-64.4c-2.5-28.5,2.1-50.6,32.5-65.6c9.1-4.5,19.7-6.7,31.2-6.7
		c16,0,31.2,4.4,40.2,6.9l2.3,0.7c14,3.9,16.8,4.7,33.6,4.8v67.9l-42.7,14.4L197.6,202.7z M194.7,143.2l40.5-13.8l-0.4-30.1
		c-6.1-0.8-11.3-2.2-19.7-4.6l-2.4-0.7c-8.5-2.5-21.5-6.2-34.6-6.2c-8.5,0-16,1.6-22.2,4.6c-18.1,8.8-22.7,18.6-20.4,43.5
		c1.3,15,5.2,30.3,10.1,45.3l37.4-0.2L194.7,143.2z"/>
</g>
</svg>
