<?xml version="1.0" encoding="utf-8"?>
<!-- Generator: Adobe Illustrator 24.1.2, SVG Export Plug-In . SVG Version: 6.00 Build 0)  -->
<svg version="1.1" id="Layer_1" xmlns="http://www.w3.org/2000/svg" xmlns:xlink="http://www.w3.org/1999/xlink" x="0px" y="0px"
	 viewBox="0 0 380 100" style="enable-background:new 0 0 380 100;" xml:space="preserve">
<style type="text/css">
	.st0{fill:none;stroke:#F39424;stroke-width:2;stroke-miterlimit:10;}
	.st1{fill:#7C9BD0;}
	.st2{fill:#49C2CB;}
	.st3{fill:#97BD59;}
	.st4{font-family:'BookAntiqua';}
	.st5{font-size:37.4314px;}
</style>
<path class="st0" d="M95.5,89h-71c-1.4,0-2.5-1.1-2.5-2.5v-73c0-1.4,1.1-2.5,2.5-2.5h71c1.4,0,2.5,1.1,2.5,2.5v73
	C98,87.9,96.9,89,95.5,89z"/>
<path class="st1" d="M66.1,43.2c-0.3,0-0.3-2.7-2.2-6c-0.8-1.5-1-1.1-4.2-5.1c-2.1-2.6-2.5-3.3-3.9-4.6c-1.8-1.6-2.7-2.5-4-2.6
	c-2.2-0.2-3.9,1.5-6,3.6c-2.3,2.4-3.6,4.6-5.2,7.4c-1.4,2.5-2.7,4.7-3.8,7.9c-1.1,3.1-2,5.7-1.9,9.2c0.1,2.6,0.7,4.7,1.3,6.6
	c0.2,0.5,0.3,0.9,2.2,5.7c2.2,5.5,2.5,6.1,2.8,6.7c1.4,2.9,2.3,4.2,2.1,4.3c-0.3,0.2-2.5-1.8-4.2-4.4c-0.8-1.3-1.2-2.1-3.2-7
	c-2.5-6-2.6-6.4-2.8-7.2c-0.5-1.9-1.2-4.3-1.1-7.6c0-3.3,0.8-5.8,1.1-7c0.7-2.2,1.6-3.6,3.3-6.4c2.2-3.6,4.2-6.1,5.6-7.8
	c1.5-1.8,3.1-3.6,5.4-5.5c2.6-2.1,3.5-2.3,4.2-2.3c1.9,0,3.3,1.5,5,3.4c2.4,2.6,2.1,3.5,4.6,6.8c2.5,3.2,3.3,3.1,4.2,5.3
	C67,39.8,66.5,43.2,66.1,43.2z"/>
<path class="st2" d="M37.1,81.4c2.9-2,5.5-3.8,7.9-5.3c3.5-2.3,5-3.2,7.3-3.5c1-0.2,2.6-0.3,5.2,0.3c4.7,1,6.6,2.7,11.2,5.1
	c5.3,2.6,8.9,4.4,13.4,3.9c4.4-0.5,7.8-3,7.7-3.3c-0.1-0.2-2.5,1.2-6.1,1.5c-3.7,0.3-6.6-0.9-10.7-2.6c-5.1-2.1-9.3-4.9-9.6-5.1
	c-4-2.7-4.5-3.8-6.6-4c-2.2-0.2-4.3,0.9-8.3,3.2c-1.6,0.9-3.8,2.2-6.3,4.4C39.9,77.9,38.3,79.9,37.1,81.4z"/>
<path class="st3" d="M67.6,35.8c0.2,0.2,1.5-1.6,4.2-3.6c2.1-1.6,3.2-2.4,4.6-2.3c2.4,0.1,4,2.5,5.2,4.2c2,2.9,2.5,5.6,2.9,7.7
	c0.2,1.2,0.8,4.6,0.1,9c-0.5,3.3-1.3,5.7-2.8,9.5c-1.5,4.2-2.3,5.2-2.8,8.1c-0.6,3.3-0.4,6.5-0.1,6.5c0.4,0,0.6-3.3,2.4-8.4
	c1.1-3.1,1.2-2.5,3.4-8.1c0.7-1.8,1.9-4.8,3-8.6c0.6-2.1,0.9-3.1,1-3.8c0.3-3.2-0.8-5.7-2.4-9.2c-1.3-2.9-1.3-1.9-4.2-7.3
	c-1.9-3.5-2.3-4.6-3.7-5.1c-2-0.7-4.3,0.7-5.4,1.8c-1.1,1.1-1,1.7-2.8,4.9C68.6,34.1,67.4,35.6,67.6,35.8z"/>
<text transform="matrix(1.148 0 0 1 117.25 51.3232)" class="st1 st4 st5">Dr Savković</text>
<g id="D___E___N___T___A___L______O___F___F___I___C___E">
	<g id="D___E___N___T___A___L______O___F___F___I___C___E_1_">
		<path class="st1" d="M124,76.8v-0.3c0.3-0.2,0.6-0.3,0.7-0.4c0.1-0.8,0.1-2.2,0.1-4.3c0-0.9,0-1.7,0-2.3c0-0.6-0.1-1-0.1-1
			s0-0.1-0.1-0.1s-0.4-0.1-1-0.2v-0.5c0.7,0,1.5,0,2.5,0h3.5c1.3,0,2.2,0.1,2.9,0.4s1.2,0.7,1.6,1.3c0.4,0.6,0.6,1.3,0.6,2.2
			c0,1.1-0.3,2.1-0.9,2.9s-1.3,1.4-2.2,1.7c-0.9,0.3-1.8,0.5-2.8,0.5h-2.7C125.5,76.8,124.9,76.8,124,76.8z M126.9,76
			c0.4,0.1,0.8,0.1,1.2,0.1c1.1,0,1.9-0.1,2.4-0.4c0.6-0.3,1-0.7,1.3-1.4c0.3-0.6,0.5-1.4,0.5-2.3c0-1.2-0.3-2.1-1-2.8
			c-0.6-0.6-1.6-0.8-2.9-0.8c-0.3,0-0.8,0-1.5,0.1l-0.1,4C126.8,74.2,126.8,75.4,126.9,76z"/>
		<path class="st1" d="M144.8,76.8v-0.4c0.3-0.1,0.5-0.2,0.7-0.4c0.1-0.7,0.1-2.1,0.1-4.3c0-1.5,0-2.5,0-2.9c0-0.3-0.1-0.4-0.1-0.5
			c-0.1-0.1-0.4-0.1-1.1-0.2v-0.5c1.1,0,2,0.1,2.6,0.1l3.9-0.1c0.4,0,0.8,0,1.1,0v0.1c-0.1,0.5-0.2,1.1-0.2,1.9h-0.6
			c0-0.6-0.1-1-0.1-1s-0.1-0.1-0.3-0.1c-0.4-0.1-1-0.1-1.8-0.1c-0.4,0-0.9,0-1.4,0c-0.1,1.3-0.1,2.4-0.1,3.2c0.5,0,1,0,1.4,0
			c0.7,0,1.1,0,1.2-0.1c0.1,0,0.1-0.1,0.2-0.2c0-0.1,0.1-0.4,0.1-0.8h0.6c0,0.7,0,1.2,0,1.4v1.5h-0.6c0-0.6-0.1-0.9-0.1-1
			s-0.1-0.1-0.2-0.1c-0.2,0-0.8-0.1-1.6-0.1c-0.3,0-0.6,0-0.9,0c0,0.2,0,0.5,0,0.7c0,1.2,0,2.2,0.1,2.8h1.4c0.8,0,1.5,0,2.2-0.1
			c0.1-0.4,0.2-0.9,0.3-1.4h0.6c-0.1,0.8-0.2,1.5-0.2,2.2c-0.4,0-0.8,0-1.2,0c-0.3,0-0.8,0-1.5,0s-1.4,0-2,0
			C146.6,76.8,145.7,76.8,144.8,76.8z"/>
		<path class="st1" d="M162,76.8v-0.5c0.6,0,0.9-0.1,1-0.1s0.1-0.1,0.1-0.2c0.1-0.1,0.1-0.5,0.1-1.1c0-1,0-1.8,0-2.3v-2.7
			c0-0.7,0-1.1-0.1-1.3c0-0.1-0.1-0.1-0.1-0.1c-0.1-0.1-0.5-0.1-1.1-0.1v-0.5c0.7,0,1.3,0,1.6,0c0.4,0,0.8,0,1.3,0
			c1.1,1.3,2.3,2.7,3.7,4.1c0.9,1,1.7,1.8,2.4,2.5v-2.6c0-1,0-1.8,0-2.5c0-0.4-0.1-0.7-0.1-0.8c0-0.1-0.1-0.1-0.2-0.1
			c-0.1,0-0.4-0.1-1-0.1v-0.5c0.5,0,1,0,1.5,0c0.7,0,1.3,0,1.9,0v0.5c-0.5,0-0.8,0.1-1,0.1c-0.1,0-0.1,0.1-0.1,0.1l-0.1,0.1
			c0,0.1-0.1,0.4-0.1,1v2.6v2.6c0,0.7,0,1.4,0,2.1l-0.1,0.1c-0.6-0.1-1-0.2-1.2-0.2c-1.2-1.2-2.7-2.8-4.4-4.6
			c-0.9-0.9-1.6-1.7-2.1-2.4v2.5c0,0.7,0,1.5,0,2.5c0,0.7,0,1.1,0.1,1.2l0.1,0.1c0.1,0,0.4,0.1,1,0.1v0.5c-0.8,0-1.3,0-1.6,0
			C163.5,76.8,162.9,76.8,162,76.8z"/>
		<path class="st1" d="M184.8,76.8v-0.5c0.3,0,0.6,0,0.8-0.1c0.1,0,0.2-0.1,0.3-0.1s0.1-0.1,0.1-0.3c0-0.2,0.1-0.9,0.1-2
			c0-0.8,0-1.7,0-2.6c0-1.7,0-2.6,0-2.6s-0.2,0-0.5,0c-0.7,0-1.2,0-1.7,0.1c-0.3,0-0.4,0-0.5,0.1l-0.1,0.1c0,0.1-0.1,0.4-0.1,1.1
			h-0.6c0-0.8,0-1.5-0.1-2.1l0.1-0.1c1.5,0.1,2.9,0.1,4.4,0.1c1.4,0,3,0,4.7-0.1l0.1,0.1c-0.1,0.6-0.2,1.3-0.2,2.1H191
			c0-0.7-0.1-1.1-0.1-1.2c0,0-0.1-0.1-0.2-0.1c-0.4-0.1-1.1-0.1-2.3-0.1c-0.1,0-0.2,0-0.2,0s0,0.1,0,0.3v4.4c0,1.3,0,2,0,2.3
			s0.1,0.5,0.2,0.5c0.1,0,0.4,0.1,1.1,0.1v0.5c-0.7,0-1.4,0-2.2,0C186.3,76.8,185.4,76.8,184.8,76.8z"/>
		<path class="st1" d="M201.2,76.2c0.4,0,0.7-0.1,0.8-0.1s0.2-0.2,0.3-0.5c0.3-0.6,0.7-1.3,1.1-2.3l2.5-5.6h1l3.2,7
			c0.4,0.9,0.7,1.4,0.8,1.4c0.1,0.1,0.4,0.1,0.9,0.2v0.6c-0.8,0-1.5,0-2.2,0c-0.8,0-1.6,0-2.3,0v-0.6c0.6,0,0.9,0,1-0.1
			c0.1,0,0.1-0.1,0.1-0.2s-0.1-0.4-0.3-0.8l-0.5-1.1c-0.6,0-1.2,0-2,0c-0.6,0-1.2,0-1.7,0l-0.3,0.7c-0.1,0.2-0.2,0.5-0.3,0.9
			c0,0.1,0,0.2,0,0.2c0,0.1,0,0.2,0.1,0.2s0.4,0.1,1,0.1v0.6c-0.5,0-1,0-1.7,0s-1.2,0-1.6,0L201.2,76.2L201.2,76.2z M205.9,70
			l-1.5,3.3c0.4,0,0.9,0,1.4,0c0.6,0,1.1,0,1.6,0L205.9,70z"/>
		<path class="st1" d="M221.8,76.8v-0.3c0.3-0.1,0.5-0.2,0.7-0.4c0.1-1.2,0.1-2.4,0.1-3.7c0-1,0-1.9,0-2.8c0-0.6,0-1-0.1-1.1
			c0-0.1-0.1-0.1-0.1-0.1c-0.1,0-0.4-0.1-1-0.1v-0.5c0.9,0,1.8,0,2.5,0c0.8,0,1.5,0,2.2,0v0.5c-0.7,0-1,0.1-1.1,0.2
			c-0.1,0-0.1,0.1-0.1,0.2s0,0.8-0.1,2.1V74c0,0.6,0,1.3,0,2.1c0.6,0,1.1,0,1.4,0c0.9,0,1.6-0.1,2.3-0.2c0.1-0.4,0.2-0.9,0.4-1.4
			h0.6c-0.1,0.6-0.2,1.4-0.3,2.3c-0.4,0-0.9,0-1.2,0h-2.6h-1.2C223.6,76.8,222.8,76.8,221.8,76.8z"/>
		<path class="st1" d="M253.2,77c-1.7,0-3.1-0.4-4-1.2c-0.9-0.8-1.4-1.9-1.4-3.4c0-1,0.2-1.9,0.7-2.6s1.1-1.2,1.9-1.6
			c0.8-0.4,1.8-0.6,3.1-0.6c1.2,0,2.2,0.2,3,0.5c0.8,0.4,1.4,0.9,1.8,1.5s0.6,1.4,0.6,2.4s-0.2,1.9-0.7,2.6s-1.1,1.3-1.9,1.7
			C255.3,76.8,254.3,77,253.2,77z M253.4,76.3c1,0,1.7-0.3,2.3-1c0.6-0.6,0.8-1.6,0.8-2.9c0-1.4-0.3-2.4-1-3.2
			c-0.5-0.6-1.3-0.9-2.4-0.9c-1,0-1.8,0.3-2.4,0.9s-0.8,1.6-0.8,2.9c0,0.9,0.2,1.7,0.5,2.4c0.3,0.6,0.7,1.1,1.2,1.4
			C252.1,76.1,252.7,76.3,253.4,76.3z"/>
		<path class="st1" d="M268.6,76.8v-0.5c0.6,0,1,0,1.1-0.1s0.1-0.2,0.1-0.5c0.1-0.8,0.1-1.8,0.1-2.9c0-0.8,0-1.7,0-2.6
			s-0.1-1.5-0.1-1.6s-0.1-0.1-0.1-0.1c-0.1,0-0.4-0.1-1-0.1v-0.5c0.8,0,1.5,0,2.1,0c0.9,0,1.8,0,2.7,0c0.6,0,1.2,0,1.6,0
			c0.3,0,0.6,0,0.9,0l0.1,0.1c-0.1,0.5-0.2,1.2-0.2,1.9h-0.6l-0.1-0.7c0-0.2,0-0.4-0.1-0.4s-0.2-0.1-0.5-0.2s-0.7-0.1-1.3-0.1
			c-0.4,0-0.8,0-1.3,0.1c-0.1,0.7-0.1,1.3-0.1,1.6v1.4v0.3c0.3,0,0.6,0,1,0c0.7,0,1.2,0,1.3,0c0.1,0,0.1-0.1,0.2-0.1
			c0.1-0.1,0.1-0.4,0.1-0.8h0.6c0,0.4,0,0.8,0,1.1c0,0.4,0,0.9,0,1.7h-0.6c0-0.6-0.1-0.9-0.1-1s-0.1-0.1-0.2-0.1
			c-0.2-0.1-0.7-0.1-1.4-0.1h-0.9v2.5c0,0.6,0.1,0.9,0.1,1s0.1,0.1,0.1,0.1c0.1,0,0.5,0.1,1.2,0.1v0.5c-0.8,0-1.5,0-2.1,0
			C270.6,76.8,269.7,76.8,268.6,76.8z"/>
		<path class="st1" d="M285.4,76.8v-0.5c0.6,0,1,0,1.1-0.1s0.1-0.2,0.1-0.5c0.1-0.8,0.1-1.8,0.1-2.9c0-0.8,0-1.7,0-2.6
			s-0.1-1.5-0.1-1.6s-0.1-0.1-0.1-0.1c-0.1,0-0.4-0.1-1-0.1v-0.5c0.8,0,1.5,0,2.1,0c0.9,0,1.8,0,2.7,0c0.6,0,1.2,0,1.6,0
			c0.3,0,0.6,0,0.9,0l0.1,0.1c-0.1,0.5-0.2,1.2-0.2,1.9h-0.6l-0.1-0.7c0-0.2,0-0.4-0.1-0.4s-0.2-0.1-0.5-0.2s-0.7-0.1-1.3-0.1
			c-0.4,0-0.8,0-1.3,0.1c-0.1,0.7-0.1,1.3-0.1,1.6v1.4v0.3c0.3,0,0.6,0,1,0c0.7,0,1.2,0,1.3,0c0.1,0,0.1-0.1,0.2-0.1
			c0.1-0.1,0.1-0.4,0.1-0.8h0.6c0,0.4,0,0.8,0,1.1c0,0.4,0,0.9,0,1.7h-0.6c0-0.6-0.1-0.9-0.1-1s-0.1-0.1-0.2-0.1
			c-0.2-0.1-0.7-0.1-1.4-0.1h-0.9v2.5c0,0.6,0.1,0.9,0.1,1s0.1,0.1,0.1,0.1c0.1,0,0.5,0.1,1.2,0.1v0.5c-0.8,0-1.5,0-2.1,0
			C287.5,76.8,286.6,76.8,285.4,76.8z"/>
		<path class="st1" d="M302.2,76.8v-0.5c0.7,0,1-0.1,1.1-0.1s0.1-0.2,0.2-0.5c0-0.6,0.1-1.6,0.1-3.2c0-0.6,0-1.5,0-2.6
			c0-0.8,0-1.2-0.1-1.3c0-0.1-0.1-0.1-0.1-0.2c-0.1,0-0.5-0.1-1.1-0.1v-0.5c1,0,1.7,0,2.2,0c0.9,0,1.7,0,2.4,0v0.5
			c-0.6,0-1,0.1-1.1,0.1c-0.1,0.1-0.1,0.2-0.2,0.4c0,0.4-0.1,1.3-0.1,2.5c0,1.7,0,2.9,0,3.5c0,0.7,0.1,1.1,0.1,1.2s0.1,0.1,0.2,0.1
			s0.4,0.1,1,0.1v0.5H306c-0.5,0-1,0-1.4,0L302.2,76.8z"/>
		<path class="st1" d="M326,75.4l0.2,0.1c-0.1,0.2-0.2,0.4-0.3,0.7c-0.5,0.3-1.1,0.5-1.6,0.6s-1.1,0.2-1.8,0.2
			c-1.2,0-2.3-0.2-3.1-0.6c-0.9-0.4-1.5-1-2-1.7s-0.7-1.6-0.7-2.5c0-1.3,0.5-2.4,1.6-3.3c1-0.9,2.5-1.3,4.3-1.3c0.6,0,1.2,0,1.8,0.1
			s1.2,0.3,1.8,0.5v0.1c-0.1,0.2-0.1,0.5-0.2,0.7c-0.1,0.4-0.1,0.8-0.1,1.4h-0.6c0-0.7-0.1-1.1-0.1-1.1c0-0.1-0.2-0.2-0.4-0.3
			c-0.2-0.2-0.5-0.3-0.9-0.4s-0.8-0.2-1.3-0.2c-1.1,0-2,0.3-2.7,1c-0.7,0.6-1,1.5-1,2.7s0.4,2.2,1.2,3c0.7,0.7,1.8,1.1,3.1,1.1
			c0.5,0,1,0,1.4-0.1C325,75.8,325.5,75.7,326,75.4z"/>
		<path class="st1" d="M336.3,76.8v-0.4c0.3-0.1,0.5-0.2,0.7-0.4c0.1-0.7,0.1-2.1,0.1-4.3c0-1.5,0-2.5,0-2.9c0-0.3-0.1-0.4-0.1-0.5
			c-0.1-0.1-0.4-0.1-1.1-0.2v-0.5c1.1,0,2,0.1,2.6,0.1l3.9-0.1c0.4,0,0.8,0,1.1,0v0.1c-0.1,0.5-0.2,1.1-0.2,1.9h-0.6
			c0-0.6-0.1-1-0.1-1s-0.1-0.1-0.3-0.1c-0.4-0.1-1-0.1-1.8-0.1c-0.4,0-0.9,0-1.4,0c-0.1,1.3-0.1,2.4-0.1,3.2c0.5,0,1,0,1.4,0
			c0.7,0,1.1,0,1.2-0.1c0.1,0,0.1-0.1,0.2-0.2c0-0.1,0.1-0.4,0.1-0.8h0.6c0,0.7,0,1.2,0,1.4v1.5H342c0-0.6-0.1-0.9-0.1-1
			s-0.1-0.1-0.2-0.1c-0.2,0-0.8-0.1-1.6-0.1c-0.3,0-0.6,0-0.9,0c0,0.2,0,0.5,0,0.7c0,1.2,0,2.2,0.1,2.8h1.4c0.8,0,1.5,0,2.2-0.1
			c0.1-0.4,0.2-0.9,0.3-1.4h0.6c-0.1,0.8-0.2,1.5-0.2,2.2c-0.4,0-0.8,0-1.2,0c-0.3,0-0.8,0-1.5,0s-1.4,0-2,0
			C338.1,76.8,337.2,76.8,336.3,76.8z"/>
	</g>
</g>
</svg>
