<?xml version="1.0" encoding="utf-8"?>
<!-- Generator: Adobe Illustrator 19.0.0, SVG Export Plug-In . SVG Version: 6.00 Build 0)  -->
<svg version="1.1" id="Layer_1" xmlns="http://www.w3.org/2000/svg" xmlns:xlink="http://www.w3.org/1999/xlink" x="0px" y="0px"
	 viewBox="-55 147 500 500" style="enable-background:new -55 147 500 500;" xml:space="preserve">
<style type="text/css">
	.st0{clip-path:url(#SVGID_5_);}
	.st1{clip-path:url(#SVGID_6_);fill:url(#SVGID_7_);}
	.st2{fill:#00BDD5;}
	.st3{fill:#58595B;}
</style>
<g>
	<g>
		<g>
			<g>
				<g>
					<g>
						<g>
							<defs>
								<polygon id="SVGID_1_" points="-71.8,148 -70.8,148 -71.8,149 								"/>
							</defs>
							<clipPath id="SVGID_2_">
								<use xlink:href="#SVGID_1_"  style="overflow:visible;"/>
							</clipPath>
						</g>
						<g>
							<defs>
								<polygon id="SVGID_3_" points="-71.8,148 -70.8,148 -71.8,149 								"/>
							</defs>
							<defs>
								<polygon id="SVGID_4_" points="-73.9,146 -75,146 -73.9,145 								"/>
							</defs>
							<clipPath id="SVGID_5_">
								<use xlink:href="#SVGID_3_"  style="overflow:visible;"/>
							</clipPath>
							<clipPath id="SVGID_6_" class="st0">
								<use xlink:href="#SVGID_4_"  style="overflow:visible;"/>
							</clipPath>
							
								<linearGradient id="SVGID_7_" gradientUnits="userSpaceOnUse" x1="194.15" y1="1258.6001" x2="194.15" y2="891.9" gradientTransform="matrix(1 0 0 1 0 -290)">
								<stop  offset="0" style="stop-color:#000000"/>
								<stop  offset="0.4601" style="stop-color:#020202"/>
								<stop  offset="0.6259" style="stop-color:#090909"/>
								<stop  offset="0.744" style="stop-color:#141414"/>
								<stop  offset="0.8395" style="stop-color:#252525"/>
								<stop  offset="0.9204" style="stop-color:#3B3B3B"/>
								<stop  offset="0.9917" style="stop-color:#565656"/>
								<stop  offset="1" style="stop-color:#595959"/>
							</linearGradient>
							<path class="st1" d="M359,853.6h-33.9c-3.8-13.2-8.3-26-12.5-37.9c-6.5-18.5-12.7-36-13.7-48.5c-3.6-46.4-6.4-71-10.8-97.5
								c-7.4-44.5-30-67.8-48.5-67.8l0,0c-11.7,0-23.7,9.8-23.9,31.6c-0.1,8.5,0,17,0.1,25.1c0.3,28.4,0.6,57.7-8.3,67.5
								c-1.5,1.6-4.1,3.8-10,3.8h-2.3c-5.8,0-8.5-2.2-10-3.8c-8.9-9.8-8.6-39.1-8.3-67.5c0.1-8.2,0.2-16.6,0.1-25.1
								c-0.2-21.8-12.2-31.6-23.9-31.6c-18.5,0-41.1,23.3-48.5,67.8c-4.4,26.4-7.1,51-10.8,97.5c-1,12.5-7.1,30-13.7,48.5
								c-4.2,12-8.7,24.8-12.5,37.9H29.3v22h33.3c-1.4,6.9-2.4,13.9-3.1,20.9c-2.4,28.4,2,50.5,31.4,65.4c8.8,4.5,18.9,6.7,30.2,6.7
								c15.5,0,30.1-4.3,38.8-6.9l2.2-0.7c13.8-4,16.3-4.8,33.3-4.8h1.9c17,0.1,19.6,0.8,33.3,4.8l2.2,0.7
								c8.7,2.6,23.4,6.9,38.8,6.9c11.2,0,21.4-2.3,30.2-6.7c29.4-14.9,33.9-36.9,31.4-65.4c-0.6-7-1.7-14-3.1-20.9H359V853.6z
								 M83.9,875.7h63.4v13.6c0,13.8,10.4,25,23.2,25h52.7c12.8,0,23.2-11.2,23.2-25v-13.6h63.4c1.7,7.7,3.1,15.3,3.7,22.9
								c2.1,24.8-2.3,34.6-19.8,43.4c-6,3.1-13.2,4.6-21.5,4.6c-12.7,0-25.2-3.7-33.4-6.1l-2.3-0.7c-15.2-4.5-19.6-5.5-38.6-5.6h-2
								c-19.1,0.1-23.4,1.1-38.6,5.6l-2.3,0.7c-8.3,2.4-20.7,6.1-33.4,6.1c-8.2,0-15.5-1.6-21.5-4.6c-17.5-8.9-21.9-18.6-19.8-43.4
								C80.8,891,82.1,883.3,83.9,875.7z M223.1,892.1h-52.7c-1.5,0-2.8-1.3-2.8-2.9V840c0-1.6,1.3-2.9,2.8-2.9h52.7
								c1.5,0,2.8,1.3,2.8,2.9v49.2C225.8,890.8,224.6,892.1,223.1,892.1z M303.7,853.6h-57.5V840c0-13.8-10.4-25-23.2-25h-52.7
								c-12.8,0-23.2,11.2-23.2,25v13.6H89.6c3.2-10.4,6.7-20.5,10.1-30.1c7.3-20.9,13.7-38.9,14.9-54.4
								c3.6-45.7,6.2-69.8,10.5-95.4C131,639,146.8,624,153.5,624c3.3,0,3.5,9.4,3.5,9.8c0.1,8.2,0,16.6-0.1,24.6
								c-0.4,35.9-0.7,66.9,14.1,83.2c6.2,6.8,14.5,10.4,24.5,10.4h2.4c10.1-0.1,18.3-3.6,24.6-10.4c14.8-16.3,14.5-47.3,14.1-83.2
								c-0.1-8.1-0.2-16.4-0.1-24.6c0-0.4,0.1-9.8,3.5-9.8c6.8,0,22.5,15,28.4,49.7c4.2,25.7,6.9,49.8,10.5,95.4
								c1.3,15.6,7.5,33.6,14.9,54.4C297,833.1,300.6,843.3,303.7,853.6z"/>
						</g>
					</g>
				</g>
			</g>
		</g>
	</g>
	<g>
		<path class="st2" d="M246.8,320v-13c0-13.8-10.5-25-23.3-25h-52.9c-12.8,0-23.3,11.2-23.3,25v13H29.8v22h117.5v13.7
			c0,13.9,10.5,25.3,23.3,25.3h52.9c12.8,0,23.3-11.3,23.3-25.3V342H359v-22H246.8z M225.6,356.1c0,1.6-1.3,2.9-2.8,2.9H170
			c-1.5,0-2.8-1.3-2.8-2.9V307c0-1.6,1.3-2.9,2.8-2.9h52.8c1.5,0,2.8,1.3,2.8,2.9V356.1z"/>
		<path class="st3" d="M61.7,308h20.9c-0.5-3.6-1.1-7.1-1.4-10.6c-2.1-24.6,2.3-34.3,19.6-43.1c6-3,13.1-4.6,21.3-4.6
			c12.6,0,25,3.6,33.1,6.1l2.2,0.7c15.1,4.4,19.5,5.5,38.3,5.5h1.9c18.8-0.1,23.2-1.1,38.3-5.5l2.2-0.7c8.2-2.4,20.5-6.1,33.1-6.1
			c8.2,0,15.2,1.5,21.3,4.6c17.3,8.8,21.7,18.4,19.6,43.1c-0.3,3.5-0.7,7.1-1.4,10.6h20.9c0.4-2.9,0.7-5.8,1.1-8.6
			c2.4-28.3-2-50.1-31.2-65c-8.8-4.4-18.8-6.7-30-6.7c-15.3,0-30,4.3-38.6,6.9l-2.2,0.7c-13.8,4-16.2,4.7-33.1,4.8h-1.9
			c-16.9-0.1-19.5-0.8-33.1-4.8l-2.2-0.7c-8.7-2.6-23.2-6.9-38.6-6.9c-11.1,0-21.3,2.2-30,6.7c-29.2,14.8-33.7,36.7-31.2,65
			C60.9,302.2,61.2,305.1,61.7,308z"/>
		<path class="st3" d="M293.2,372.8c-7.3,20.8-13.5,38.7-14.8,54.2c-3.6,45.4-6.2,69.4-10.5,95c-5.7,34.5-21.5,49.4-28.3,49.4
			c-3.3,0-3.5-9.3-3.5-9.7c-0.1-8.2,0-16.5,0.1-24.5c0.4-35.7,0.7-66.6-14.1-82.8c-6.2-6.8-14.4-10.3-24.3-10.4h-2.4
			c-10,0.1-18.1,3.6-24.3,10.4c-14.8,16.3-14.4,47.1-14.1,82.8c0.1,8,0.2,16.3,0.1,24.5c0,0.4-0.1,9.7-3.5,9.7
			c-6.8,0-22.4-14.9-28.3-49.4c-4.2-25.5-6.9-49.5-10.5-95c-1.2-15.5-7.5-33.4-14.8-54.2c-2-5.8-4.1-11.8-6.1-17.8H72
			c2.9,8.8,5.8,17.4,8.7,25.6c6.5,18.4,12.6,35.9,13.5,48.3c3.6,46.2,6.4,70.7,10.7,97c7.4,44.3,29.9,67.5,48.3,67.5
			c11.6,0,23.6-9.7,23.8-31.4c0.1-8.5,0-16.9-0.1-25c-0.3-28.3-0.6-57.5,8.3-67.2c1.5-1.6,4.1-3.8,9.8-3.8h2.5c5.8,0,8.5,2.2,10,3.8
			c8.9,9.8,8.6,39.1,8.3,67.5c-0.1,8.2-0.2,16.6-0.1,25.1c0.2,21.8,12.2,31.5,23.9,31.5h0.1c18.4,0,41-23.2,48.4-67.7
			c4.3-26.4,7.1-50.9,10.7-97.2c1-12.5,7.1-29.9,13.5-48.4c2.9-8.2,5.9-16.8,8.7-25.7h-22.1C297.2,361.1,295.2,367.1,293.2,372.8z"
			/>
	</g>
</g>
</svg>
