<?xml version="1.0" encoding="utf-8"?>
<!-- Generator: Adobe Illustrator 19.0.0, SVG Export Plug-In . SVG Version: 6.00 Build 0)  -->
<svg version="1.1" id="Layer_1" xmlns="http://www.w3.org/2000/svg" xmlns:xlink="http://www.w3.org/1999/xlink" x="0px" y="0px"
	 viewBox="-55 147 500 500" style="enable-background:new -55 147 500 500;" xml:space="preserve">
<style type="text/css">
	.st0{clip-path:url(#SVGID_5_);}
	.st1{clip-path:url(#SVGID_6_);fill:url(#SVGID_7_);}
	.st2{fill:#49C3CC;}
	.st3{fill:#58595B;}
</style>
<g>
	<g>
		<g>
			<g>
				<g>
					<g>
						<g>
							<defs>
								<polygon id="SVGID_1_" points="-16.5,148 -15.6,148 -16.5,149 								"/>
							</defs>
							<clipPath id="SVGID_2_">
								<use xlink:href="#SVGID_1_"  style="overflow:visible;"/>
							</clipPath>
						</g>
						<g>
							<defs>
								<polygon id="SVGID_3_" points="-16.5,148 -15.6,148 -16.5,149 								"/>
							</defs>
							<defs>
								<polygon id="SVGID_4_" points="-18.2,146 -19,146 -18.2,145 								"/>
							</defs>
							<clipPath id="SVGID_5_">
								<use xlink:href="#SVGID_3_"  style="overflow:visible;"/>
							</clipPath>
							<clipPath id="SVGID_6_" class="st0">
								<use xlink:href="#SVGID_4_"  style="overflow:visible;"/>
							</clipPath>
							
								<linearGradient id="SVGID_7_" gradientUnits="userSpaceOnUse" x1="196.9838" y1="-2640" x2="196.9838" y2="-2283.8" gradientTransform="matrix(1 0 0 -1 0 -1704)">
								<stop  offset="0" style="stop-color:#000000"/>
								<stop  offset="0.4601" style="stop-color:#020202"/>
								<stop  offset="0.6259" style="stop-color:#090909"/>
								<stop  offset="0.744" style="stop-color:#141414"/>
								<stop  offset="0.8395" style="stop-color:#252525"/>
								<stop  offset="0.9204" style="stop-color:#3B3B3B"/>
								<stop  offset="0.9917" style="stop-color:#565656"/>
								<stop  offset="1" style="stop-color:#595959"/>
							</linearGradient>
							<path class="st1" d="M326,866c-2.3-27.4-11.5-54.6-19.7-78.5c-6.1-18-11.9-35-12.9-47.1c-3.4-45.1-6-69-10.1-94.7
								c-7-43.3-28.2-65.9-45.7-65.9l0,0c-11.1,0-22.2,9.5-22.5,30.7c-0.1,8.3,0,16.5,0.1,24.4c0.4,27.6,0.6,56.1-7.7,65.6
								c-1.4,1.6-3.9,3.7-9.4,3.7h-2.2c-5.4,0-7.9-2.1-9.4-3.7c-8.4-9.5-8.1-38-7.7-65.6c0.1-7.9,0.2-16.2,0.1-24.4
								c-0.3-21.2-11.4-30.7-22.5-30.7c-17.4,0-38.7,22.6-45.7,65.9c-4.2,25.7-6.7,49.6-10.1,94.7c-0.9,12.1-6.7,29.1-12.9,47.1
								c-8.2,24-17.4,51.2-19.7,78.5c-2.4,27.6,1.9,49,29.6,63.5c8.3,4.3,17.9,6.5,28.4,6.5c14.6,0,28.4-4.2,36.6-6.7l2.1-0.6
								c13-3.9,15.3-4.6,31.4-4.7h1.8c16.1,0.1,18.3,0.8,31.4,4.7l2.1,0.6c8.2,2.5,22,6.7,36.6,6.7c10.6,0,20.1-2.2,28.4-6.5
								C324.1,915,328.3,893.6,326,866z M274.2,742.1c0.7,8.9,3,18.6,6.3,29.3h-31.2l-1.4,8.6c-3.1,19.5-17.6,33.7-34.5,33.7h-32.8
								c-16.8,0-31.3-14.2-34.5-33.7l-1.4-8.6h-31.3c3.2-10.6,5.6-20.4,6.3-29.3c3.4-44.4,5.9-67.8,9.9-92.7
								c5.4-33.7,20.3-48.3,26.7-48.3c3.1,0,3.3,9.1,3.3,9.5c0.1,8,0,16.1-0.1,23.9c-0.5,34.9-0.7,65,13.3,80.9
								c5.9,6.7,13.6,10.1,23.1,10.1h2.3c9.4-0.1,17.2-3.5,23.2-10.1c14-15.9,13.6-46,13.3-80.9c-0.1-7.8-0.2-15.9-0.1-23.9
								c0-0.4,0.2-9.5,3.3-9.5c6.4,0,21.3,14.6,26.7,48.3C268.3,674.3,270.9,697.7,274.2,742.1z M288.2,910.1
								c-5.7,3-12.5,4.5-20.2,4.5c-12,0-23.7-3.6-31.5-5.9l-2.2-0.7c-14.4-4.3-18.4-5.4-36.4-5.4h-1.8c-18,0.1-22.1,1.1-36.4,5.4
								l-2.2,0.7c-7.7,2.4-19.5,5.9-31.5,5.9c-7.7,0-14.5-1.5-20.2-4.5c-16.3-8.6-20.6-18.1-18.6-42.2c2-24.4,10.8-50.2,18.5-72.9
								c0.4-0.9,0.6-1.8,0.9-2.7h23c7.4,25,27.7,42.3,50.9,42.3h32.8c23.3,0,43.8-17.3,50.9-42.3h23c0.4,0.9,0.6,1.8,0.9,2.7
								c7.7,22.7,16.4,48.5,18.5,72.9C308.8,892,304.7,901.5,288.2,910.1z"/>
						</g>
					</g>
				</g>
			</g>
		</g>
	</g>
	<g>
		<path class="st2" d="M295.9,222.5c-8.3-4.3-17.8-6.5-28.3-6.5c-14.5,0-28.2,4.2-36.4,6.7l-2.1,0.6c-12.9,3.9-15.3,4.6-31.2,4.7
			h-1.8c-16.1-0.1-18.3-0.8-31.3-4.7l-2.1-0.6c-8.2-2.5-21.9-6.7-36.4-6.7c-10.5,0-20,2.2-28.3,6.5c-27.6,14.4-31.8,35.7-29.4,63.3
			C70.9,313,80,340.1,88.2,364c1.9,5.5,3.7,10.8,5.4,16h20.1l0,0h31.7l1.4-8.6c3.1-19.4,17.5-33.4,34.1-33.4h32.5
			c16.7,0,31,14.1,34.1,33.4l1.4,8.6h31.7l0,0h19.9c1.6-5.2,3.4-10.5,5.4-16c8.1-23.9,17.3-51,19.6-78.2
			C327.7,258.3,323.5,237,295.9,222.5z M306.6,283.6c-2,24.4-10.8,50.1-18.4,72.7c-0.4,0.9-0.6,1.8-0.9,2.7H264
			c-7.3-24.8-27.4-42-50.7-42h-32.5c-23.2,0-43.4,17.2-50.7,42h-23.2c-0.4-0.9-0.6-1.8-0.9-2.7c-7.7-22.6-16.4-48.3-18.4-72.7
			c-2-24.1,2.2-33.5,18.5-42.1c5.7-3,12.4-4.5,20.2-4.5c12,0,23.6,3.6,31.4,5.9l2.2,0.7c14.3,4.3,18.3,5.3,36.3,5.4h1.8
			c17.9-0.1,21.9-1.1,36.3-5.4l2.2-0.7c7.7-2.4,19.4-5.9,31.4-5.9c7.7,0,14.5,1.5,20.2,4.5C304.3,250.1,308.6,259.5,306.6,283.6z"/>
		<path class="st3" d="M277.3,392c-1.5,6.1-2.5,11.9-3,17.4c-3.4,44.4-5.9,67.8-9.9,92.7c-5.4,33.7-20.3,48.3-26.7,48.3
			c-3.1,0-3.3-9.1-3.3-9.5c-0.1-8,0-16.1,0.1-23.9c0.4-34.9,0.7-65-13.3-80.9c-5.9-6.7-13.6-10.1-23.2-10.1h-2.3
			c-9.4,0.1-17.2,3.5-23.1,10.1c-14,15.9-13.6,46-13.3,80.9c0.1,7.8,0.2,15.9,0.1,23.9c0,0.4-0.2,9.5-3.3,9.5
			c-6.4,0-21.3-14.6-26.7-48.3c-4.1-24.9-6.5-48.3-9.9-92.7c-0.5-5.5-1.5-11.3-3-17.4H97.2c2,7.1,3.4,13.6,3.9,19.1
			c3.4,44.8,6,68.5,10.1,94c6.9,43,28.1,65.4,45.3,65.4c11,0,22.2-9.4,22.3-30.4c0.1-8.2,0-16.4-0.1-24.2
			c-0.4-27.4-0.6-55.7,7.7-65.1c1.4-1.6,3.9-3.6,9.4-3.7h2.2c5.5,0,7.9,2.1,9.4,3.7c8.4,9.4,8,37.8,7.7,65.1
			c-0.1,7.9-0.2,16.1-0.1,24.2c0.2,21,11.3,30.4,22.3,30.4c17.2,0,38.4-22.5,45.3-65.4c4.2-25.5,6.6-49.2,10.1-94
			c0.5-5.5,1.9-12,3.9-19.1L277.3,392L277.3,392z"/>
	</g>
</g>
</svg>
