<?xml version="1.0" encoding="utf-8"?>
<!-- Generator: Adobe Illustrator 24.1.2, SVG Export Plug-In . SVG Version: 6.00 Build 0)  -->
<svg version="1.1" id="Layer_1" xmlns="http://www.w3.org/2000/svg" xmlns:xlink="http://www.w3.org/1999/xlink" x="0px" y="0px"
	 viewBox="0 0 426.8 451.5" style="enable-background:new 0 0 426.8 451.5;" xml:space="preserve">
<style type="text/css">
	.st0{fill:#49C3CC;stroke:#00BDD5;stroke-miterlimit:10;}
	.st1{fill:#59595B;}
</style>
<ellipse transform="matrix(0.1602 -0.9871 0.9871 0.1602 -8.0578 434.1292)" class="st0" cx="251.1" cy="221.8" rx="33.2" ry="33.2"/>
<g>
	<g>
		<path class="st1" d="M260.4,260.3c-2.5,8.6-5.2,17.2-8.2,25.7c-1.5,4.3-3,8.5-4.6,12.7c-1.4,3.7-3,8.2-4.4,11.2
			c-0.8,1.8-1.7,3.6-2.7,5.3c-0.9,1.6-2,3.1-2.9,4.2c-1.2,1.4-2.5,2.6-3.9,3.8c-1.2,1,0.7-0.5-0.6,0.4c-0.3,0.2-0.5,0.4-0.8,0.6
			c-0.8,0.6-1.7,1.1-2.5,1.6c-1.6,0.9-3.2,1.8-4.9,2.5c0,0-1.5,0.6-0.7,0.3c-0.3,0.1-0.6,0.3-0.9,0.4c-0.9,0.4-1.9,0.7-2.8,1
			c-3.8,1.3-7.7,2.4-11.5,3.3c-17,4.1-33.8,5.5-51.4,6.2c-8.7,0.3-17.5,0.5-26.3,0.5c-2.2,0-4.3-0.1-6.5-0.2
			c-1.9-0.1-4.3-0.3-5.7-0.5c-2.1-0.4-4.1-0.8-6.2-1.4c-0.8-0.2-1.5-0.5-2.3-0.7c-0.4-0.2-0.9-0.3-1.3-0.5c0.9,0.4-0.4-0.2-0.6-0.3
			c-1.6-0.7-3.1-1.6-4.6-2.6c-0.3-0.2-0.6-0.5-1-0.7c-0.7-0.5,0.8,0.7-0.3-0.2c-0.7-0.6-1.4-1.2-2.1-1.9c-0.3-0.3-0.6-0.7-1-1
			c0-0.1-1-1.2-0.4-0.4c-0.5-0.6-0.9-1.3-1.3-1.9c-0.4-0.7-0.8-1.4-1.1-2.1c-0.7-1.4,0.2,0.8-0.3-0.6c-0.2-0.5-0.3-0.9-0.5-1.4
			c-0.3-0.9-0.5-1.9-0.7-2.8c-0.1-0.3-0.1-0.6-0.2-1c0.1,1.1,0-0.5,0-0.6c-0.1-1.8-0.1-3.6,0-5.4c0.2-3.8,0.7-6.2,1.4-10.3
			c1.4-7.7,3-15.5,2.1-23.4c-0.6-4.4-1.9-8.7-2.6-13.1c-0.3-1.5-0.4-3.5-0.2-5.5c0.2-2.3,0.5-3.8,0.8-6.3c0.4-4.2-0.4-8.3-2.6-12
			c-1.8-3-4.3-5.6-6.7-8c-1.1-1.2-2.3-2.4-3.3-3.6c0,0-0.9-1.1-0.4-0.5c0.4,0.6-0.4-0.6-0.4-0.6c-0.5-0.8-1-1.6-1.4-2.5
			c-0.7-1.3,0.2,0.8-0.3-0.6c-0.2-0.5-0.3-0.9-0.5-1.4c-0.2-0.8-0.4-1.6-0.5-2.4c0.1,0.9,0-0.2,0-0.4c0-0.4-0.1-0.8-0.1-1.2
			c0-1,0-2,0.1-3c0.1-1.6,0.3-2.6,0.8-4.7c0.2-0.8,0.5-1.7,0.7-2.5c0.2-0.5,0.3-1,0.5-1.5c0-0.1,0.6-1.5,0.3-0.7
			c1.6-3.7,3.7-7.2,5.9-10.5c4.6-7,9.3-13.8,12.5-21.5c6-14.4,7.2-30.1,11-45.1c0.9-3.7,2.1-7.4,3.5-11c0.2-0.5,0.4-1,0.6-1.5
			c-0.3,0.8,0.3-0.8,0.3-0.7c0.4-0.8,0.7-1.6,1.1-2.4c0.8-1.6,1.7-3.2,2.6-4.7s1.9-2.9,3-4.4c-0.1,0.1,0.9-1.2,0.5-0.6
			c-0.4,0.5,0.6-0.7,0.5-0.6c0.6-0.7,1.2-1.5,1.9-2.2c2.3-2.6,4.9-5.1,7.6-7.3c0.4-0.3,0.7-0.6,1.1-0.9c0,0,1.3-1,0.5-0.4
			c0.6-0.5,1.3-1,1.9-1.4c1.4-1,2.9-2,4.4-3c3-1.9,6.1-3.6,9.4-5.1c0.9-0.4,1.8-0.8,2.6-1.2c0.3-0.1,0.6-0.3,0.9-0.4
			c-0.9,0.4,0.6-0.2,0.6-0.2c1.6-0.7,3.3-1.3,5-1.9c3.9-1.4,8-2.5,12-3.5c16.5-3.9,33.3-4.7,50.5-5.5c7.7-0.3,15.5-0.6,23.2-0.5
			c3.9,0.1,7.7,0.2,11.6,0.5c1.9,0.1,3.8,0.3,5.7,0.5c2.2,0.2,2.7,0.3,4.9,0.7c7.5,1.2,14.8,3.1,21.8,5.9c1.5,0.6-0.8-0.4,0.7,0.3
			c0.5,0.2,0.9,0.4,1.4,0.6c0.8,0.4,1.5,0.7,2.3,1.1c1.7,0.8,3.3,1.7,5,2.7c1.6,1,3.2,2,4.8,3.1c1.7,1.2,2.2,1.6,3.8,2.9
			c2.8,2.4,5.5,4.9,8,7.7c2.6,2.8,4.7,5.5,6.6,8c4.4,6.1,8.2,12.6,11.7,19.2c3.7,7.2,6.9,14.2,9.6,21.5c2.9,7.9,4.9,15.9,5.3,23.9
			c0.9,16.2-3.6,32.5-10.1,47.1c-7,15.6-16.3,30-25.1,44.6c-9,14.8-17.3,29.8-23.3,46c-6,16-9.8,32.7-11.6,49.6
			c-0.9,8.2-1.3,16.4-1.2,24.6c0,2.6,2.3,5.1,5,5s5-2.2,5-5c-0.4-34.3,8.2-68,24.8-98c16.7-30.4,39.6-58.8,45.4-93.9
			c1.5-8.9,1.8-17.8,0.6-26.8c-1.2-8.9-3.9-17.4-7.3-25.6c-6.2-15-13.7-29.6-23.8-42.2c-10-12.5-22.9-21.9-38-27.2
			c-15-5.3-31.2-6.7-47-6.7c-8,0-15.9,0.3-23.9,0.7c-9.1,0.4-18.1,1-27.2,2C174.8,67.3,158.1,71,143,79c-13.1,6.9-25,17.2-32.2,30.3
			c-7.9,14.2-9.7,30.5-13,46.2c-0.8,4-1.8,7.9-3,11.8c-0.6,1.8-1.2,3.7-1.9,5.4c-0.4,0.9-0.5,1.3-0.7,1.7c-0.4,1-0.9,1.9-1.3,2.9
			c-3.8,7.6-9.1,14.2-13.3,21.5c-4.1,7.2-7.2,15.6-6.6,24c0.3,4.2,1.4,8.3,3.6,11.9c1.9,3.2,4.6,5.8,7.1,8.5
			c1.1,1.2,2.2,2.3,3.3,3.6c-0.1-0.2-0.5-0.8,0,0c0.2,0.4,0.5,0.7,0.7,1.1c0.2,0.4,0.4,0.7,0.6,1.1c0.1,0.2,0.6,1.4,0.2,0.3
			c0.1,0.4,0.3,0.8,0.4,1.2c0,0,0.3,1.3,0.2,0.6c0.2,0.9,0.1,1.9,0.1,2.8c-0.1,2.5-0.5,4.2-0.8,6.8c-0.4,4.4,0.5,8.9,1.5,13.2
			c1,4.3,1.7,7.3,1.6,11.6c-0.1,4.3-0.5,6.8-1.3,11c-0.7,3.7-1.4,7.5-1.9,11.2c-1.1,8.2-1.1,16.6,3,24c3.9,7,10.7,11.8,18,14.7
			c8.2,3.2,17.4,3.6,26.2,3.5c18-0.1,36.2-0.4,54.1-2.7c9.1-1.1,18.2-2.7,27.1-5c7.6-2,15.4-4.5,22.1-8.8
			c7.1-4.6,12.1-11.1,15.5-18.9c3.6-8.4,6.7-17.1,9.7-25.8c2.9-8.5,5.6-17.1,8.2-25.7c0.7-2.5-0.9-5.6-3.5-6.2
			C263.9,256.2,261.2,257.7,260.4,260.3L260.4,260.3z"/>
	</g>
</g>
</svg>
