<?xml version="1.0" encoding="utf-8"?>
<!-- Generator: Adobe Illustrator 24.1.2, SVG Export Plug-In . SVG Version: 6.00 Build 0)  -->
<svg version="1.1" id="Layer_1" xmlns="http://www.w3.org/2000/svg" xmlns:xlink="http://www.w3.org/1999/xlink" x="0px" y="0px"
	 viewBox="0 0 500 500" style="enable-background:new 0 0 500 500;" xml:space="preserve">
<style type="text/css">
	.st0{fill:#00BDD5;}
	.st1{fill:#58595B;}
	.st2{clip-path:url(#SVGID_5_);}
	.st3{clip-path:url(#SVGID_6_);fill:url(#SVGID_7_);}
	.st4{clip-path:url(#SVGID_12_);}
	.st5{clip-path:url(#SVGID_13_);fill:url(#SVGID_14_);}
</style>
<g>
	<path class="st0" d="M316.4,233.2c-44.7,0-81-35.8-81-79.8s36.3-79.8,81-79.8s81,35.8,81,79.8S361.1,233.2,316.4,233.2z
		 M316.4,88.7c-36.1,0-65.5,29-65.5,64.6s29.4,64.6,65.5,64.6s65.5-29,65.5-64.6S352.6,88.7,316.4,88.7z M347.6,186.5
		c3.1-2.8,3.3-7.4,0.5-10.4l-24-26v-48.3c0-4.1-3.4-7.4-7.5-7.4s-7.5,3.3-7.5,7.4v54.1l28,30.2c1.5,1.6,3.5,2.4,5.5,2.4
		C344.3,188.4,346.1,187.8,347.6,186.5z"/>
	<path class="st0" d="M238.2,341h-90.3l-21.6-133.5l-23.4,3.7l23,142.5V443h24v-78h77v78h23v-90.3C250,346.2,244.7,341,238.2,341z"
		/>
	<g>
		<path class="st1" d="M150.3,128.2c-17.3,0-31.3,13.8-31.3,30.9c0,17,14,30.9,31.3,30.9s31.3-13.8,31.3-30.9
			S167.6,128.2,150.3,128.2z"/>
		<path class="st1" d="M341.4,360.9l-65-59.9c-0.1-0.1-0.3-0.2-0.4-0.3c-0.5-0.4-1.1-0.9-1.7-1.2c-0.3-0.2-0.5-0.3-0.8-0.5
			c-0.5-0.3-1.1-0.6-1.7-0.8c-0.3-0.1-0.6-0.2-0.8-0.3c-0.8-0.3-1.7-0.5-2.6-0.7c-0.1,0-0.3,0-0.4,0c-0.7-0.1-1.4-0.2-2.1-0.2h-78.5
			l-7-38.6l16.7,19c2,2.3,5,3.6,8,3.6c0.7,0,1.5-0.1,2.2-0.2l30.9-6.5l-4.2,12l18.3,6.2l21.9-62.9l-18.3-6.2l-9.8,28
			c-0.3,0-0.5,0-0.8,0.1l-36.3,7.6l-35.8-40.8l-2.1-11.8c-1.5-8.2-9.4-13.6-17.7-12.1s-13.8,9.2-12.3,17.4l18.6,102.8
			c1.3,7.2,7.6,12.4,15,12.4H255l35.5,108.9c2.1,6.4,8.1,10.4,14.5,10.4c1.5,0,3.1-0.2,4.7-0.7c8-2.5,12.4-11,9.8-18.9l-21-64.2
			l22.1,20.4c2.9,2.7,6.7,4,10.4,4c4.1,0,8.1-1.6,11.1-4.8C347.9,376.1,347.6,366.6,341.4,360.9z"/>
	</g>
	<g>
		<g>
			<g>
				<defs>
					<polygon id="SVGID_1_" points="1,1 2,1 1,2 					"/>
				</defs>
				<clipPath id="SVGID_2_">
					<use xlink:href="#SVGID_1_"  style="overflow:visible;"/>
				</clipPath>
			</g>
			<g>
				<defs>
					<polygon id="SVGID_3_" points="1,1 2,1 1,2 					"/>
				</defs>
				<defs>
					<polygon id="SVGID_4_" points="-1,-1 -2,-1 -1,-2 					"/>
				</defs>
				<clipPath id="SVGID_5_">
					<use xlink:href="#SVGID_3_"  style="overflow:visible;"/>
				</clipPath>
				<clipPath id="SVGID_6_" class="st2">
					<use xlink:href="#SVGID_4_"  style="overflow:visible;"/>
				</clipPath>
				<linearGradient id="SVGID_7_" gradientUnits="userSpaceOnUse" x1="176.5" y1="685.2001" x2="176.5" y2="450.4">
					<stop  offset="0" style="stop-color:#000000"/>
					<stop  offset="0.2629" style="stop-color:#030303"/>
					<stop  offset="0.4623" style="stop-color:#0D0D0D"/>
					<stop  offset="0.6408" style="stop-color:#1D1D1D"/>
					<stop  offset="0.807" style="stop-color:#343434"/>
					<stop  offset="0.9634" style="stop-color:#515151"/>
					<stop  offset="1" style="stop-color:#595959"/>
				</linearGradient>
				<path class="st3" d="M249.9,540.4v-90h-23.6v78.4h-76.6v-78.4h-23.6v89.1l-23,142l23.3,3.7L148,552.1h90.2
					C244.6,552.1,249.9,546.9,249.9,540.4z"/>
			</g>
		</g>
	</g>
	<g>
		<g>
			<g>
				<g>
					<defs>
						<polygon id="SVGID_8_" points="1,1 2,1 1,2 						"/>
					</defs>
					<clipPath id="SVGID_9_">
						<use xlink:href="#SVGID_8_"  style="overflow:visible;"/>
					</clipPath>
				</g>
				<g>
					<defs>
						<polygon id="SVGID_10_" points="1,1 2,1 1,2 						"/>
					</defs>
					<defs>
						<polygon id="SVGID_11_" points="-1,-1 -2,-1 -1,-2 						"/>
					</defs>
					<clipPath id="SVGID_12_">
						<use xlink:href="#SVGID_10_"  style="overflow:visible;"/>
					</clipPath>
					<clipPath id="SVGID_13_" class="st4">
						<use xlink:href="#SVGID_11_"  style="overflow:visible;"/>
					</clipPath>
					<linearGradient id="SVGID_14_" gradientUnits="userSpaceOnUse" x1="243.6573" y1="697.7239" x2="243.6573" y2="448.5999">
						<stop  offset="0" style="stop-color:#000000"/>
						<stop  offset="0.2608" style="stop-color:#030303"/>
						<stop  offset="0.4606" style="stop-color:#0D0D0D"/>
						<stop  offset="0.6401" style="stop-color:#1D1D1D"/>
						<stop  offset="0.8076" style="stop-color:#343434"/>
						<stop  offset="0.9655" style="stop-color:#525252"/>
						<stop  offset="1" style="stop-color:#595959"/>
					</linearGradient>
					<path class="st5" d="M341,512.1c-3-3.1-7-4.7-11-4.7c-3.7,0-7.4,1.3-10.3,4l-21.8,20.1l20.7-63.5c2.5-7.8-1.8-16.1-9.7-18.7
						c-1.5-0.5-3.1-0.7-4.6-0.7c-6.4,0-12.3,4-14.3,10.3l-35.1,107.6h-79.2c-7.3,0-13.5,5.2-14.8,12.2l-18.4,101.6
						c-1.5,8.1,4,15.8,12.2,17.2s16-3.9,17.4-12l2.1-11.6l35.4-40.3l35.9,7.6c0.3,0.1,0.5,0,0.8,0.1l9.6,27.7l18.1-6.1l-21.6-62.2
						l-18.1,6.1l4.1,11.9l-30.5-6.4c-0.7-0.2-1.5-0.2-2.2-0.2c-3,0-5.9,1.3-7.9,3.6l-16.5,18.8l6.9-38.2h77.6c0.7,0,1.4-0.1,2-0.2
						c0.1,0,0.3,0,0.4,0c0.9-0.1,1.7-0.4,2.5-0.6c0.3-0.1,0.6-0.2,0.8-0.3c0.6-0.2,1.1-0.5,1.6-0.8c0.3-0.2,0.5-0.3,0.8-0.5
						c0.6-0.4,1.1-0.8,1.6-1.2c0.1-0.1,0.3-0.2,0.4-0.3l64.2-59.2C346.4,527.5,346.7,518.1,341,512.1z"/>
				</g>
			</g>
		</g>
	</g>
</g>
</svg>
