<?xml version="1.0" encoding="UTF-8" standalone="no"?>
<!-- Created with Inkscape (http://www.inkscape.org/) -->

<svg
   xmlns:dc="http://purl.org/dc/elements/1.1/"
   xmlns:cc="http://creativecommons.org/ns#"
   xmlns:rdf="http://www.w3.org/1999/02/22-rdf-syntax-ns#"
   xmlns:svg="http://www.w3.org/2000/svg"
   xmlns="http://www.w3.org/2000/svg"
   xmlns:sodipodi="http://sodipodi.sourceforge.net/DTD/sodipodi-0.dtd"
   xmlns:inkscape="http://www.inkscape.org/namespaces/inkscape"
   width="12.7mm"
   height="12.993864mm"
   viewBox="0 0 12.7 12.993864"
   version="1.1"
   id="svg8"
   inkscape:version="0.92.3 (2405546, 2018-03-11)"
   sodipodi:docname="dwa.svg">
  <defs
     id="defs2">
    <clipPath
       id="clipPath44"
       clipPathUnits="userSpaceOnUse">
      <path
         inkscape:connector-curvature="0"
         id="path42"
         d="M 0,144.48 H 252.24 V 0 H 0 Z" />
    </clipPath>
    <clipPath
       id="clipPath102"
       clipPathUnits="userSpaceOnUse">
      <path
         inkscape:connector-curvature="0"
         id="path100"
         d="M 0,41.5 H 40.5 V 0 H 0 Z" />
    </clipPath>
  </defs>
  <sodipodi:namedview
     id="base"
     pagecolor="#ffffff"
     bordercolor="#666666"
     borderopacity="1.0"
     inkscape:pageopacity="0.0"
     inkscape:pageshadow="2"
     inkscape:zoom="1.4"
     inkscape:cx="-122.72823"
     inkscape:cy="-71.184955"
     inkscape:document-units="mm"
     inkscape:current-layer="g96"
     showgrid="false"
     inkscape:window-width="2560"
     inkscape:window-height="1377"
     inkscape:window-x="-8"
     inkscape:window-y="-8"
     inkscape:window-maximized="1"
     fit-margin-top="0"
     fit-margin-left="0"
     fit-margin-right="0"
     fit-margin-bottom="0" />
  <metadata
     id="metadata5">
    <rdf:RDF>
      <cc:Work
         rdf:about="">
        <dc:format>image/svg+xml</dc:format>
        <dc:type
           rdf:resource="http://purl.org/dc/dcmitype/StillImage" />
        <dc:title></dc:title>
      </cc:Work>
    </rdf:RDF>
  </metadata>
  <g
     inkscape:label="Layer 1"
     inkscape:groupmode="layer"
     id="layer1"
     transform="translate(-107.16044,-89.667574)">
    <g
       transform="matrix(0.35277777,0,0,-0.35277777,59.829096,166.75848)"
       inkscape:label="DrSavkovic_LOGO_Vektor"
       id="g18">
      <path
         inkscape:connector-curvature="0"
         id="path20"
         style="fill:#323237;fill-opacity:1;fill-rule:nonzero;stroke:none"
         d="M 0,0 H 252.24 V 144.48 H 0 Z" />
      <g
         transform="translate(27.2871,62.4069)"
         id="g22">
        <path
           inkscape:connector-curvature="0"
           id="path24"
           style="fill:#f49524;fill-opacity:1;fill-rule:nonzero;stroke:none"
           d="M 0,0 H 198.499 Z" />
      </g>
      <g
         transform="translate(27.2867,62.4067)"
         id="g26">
        <path
           inkscape:connector-curvature="0"
           id="path28"
           style="fill:none;stroke:#f49524;stroke-width:1;stroke-linecap:butt;stroke-linejoin:miter;stroke-miterlimit:10;stroke-dasharray:none;stroke-opacity:1"
           d="M 0,0 H 198.5" />
      </g>
      <text
         id="text32"
         style="font-variant:normal;font-weight:normal;font-stretch:normal;font-size:26px;font-family:'Book Antiqua';-inkscape-font-specification:BookAntiqua;writing-mode:lr-tb;fill:#7c9cd1;fill-opacity:1;fill-rule:nonzero;stroke:none"
         transform="matrix(1,0,0,-1,78.2866,67.7397)">
        <tspan
           id="tspan30"
           sodipodi:role="line"
           y="0"
           x="0 20.124001 30.393999 36.894001 50.543999 63.543999 78.234001 92.690002 106.886 121.576 129.142">Dr Savković</tspan>
      </text>
      <text
         id="text36"
         style="font-variant:normal;font-weight:normal;font-stretch:normal;font-size:10px;font-family:'Book Antiqua';-inkscape-font-specification:BookAntiqua;writing-mode:lr-tb;fill:#7c9cd1;fill-opacity:1;fill-rule:nonzero;stroke:none"
         transform="matrix(1,0,0,-1,43.2871,47.7407)">
        <tspan
           id="tspan34"
           sodipodi:role="line"
           y="0"
           x="0 7.7399998 15.24 21.35 28.85 37.16 44.66 50.790001 58.290001 66.07 73.57 79.68 94.68 102.54 110.04 115.6 123.1 128.66 136.16 139.53 147.03 154.12 161.62">D E N T A L O F F I C E</tspan>
      </text>
      <g
         id="g38">
        <g
           clip-path="url(#clipPath44)"
           id="g40">
          <g
             transform="translate(66.9533,68.4067)"
             id="g46">
            <path
               inkscape:connector-curvature="0"
               id="path48"
               style="fill:none;stroke:#f49524;stroke-width:1;stroke-linecap:butt;stroke-linejoin:miter;stroke-miterlimit:10;stroke-dasharray:none;stroke-opacity:1"
               d="m 0,0 h -30 c -1.375,0 -2.5,1.125 -2.5,2.5 v 30.833 c 0,1.375 1.125,2.5 2.5,2.5 H 0 c 1.375,0 2.5,-1.125 2.5,-2.5 V 2.5 C 2.5,1.125 1.375,0 0,0 Z" />
          </g>
          <g
             transform="translate(54.8387,89.3963)"
             id="g50">
            <path
               inkscape:connector-curvature="0"
               id="path52"
               style="fill:#ffffff;fill-opacity:1;fill-rule:nonzero;stroke:none"
               d="m 0,0 c -0.145,-0.021 -0.151,1.237 -1.031,2.75 -0.387,0.665 -0.445,0.524 -1.938,2.344 -0.97,1.182 -1.164,1.508 -1.812,2.093 -0.828,0.748 -1.242,1.122 -1.844,1.188 -1.002,0.11 -1.83,-0.686 -2.781,-1.625 -1.091,-1.077 -1.686,-2.084 -2.438,-3.375 -0.672,-1.155 -1.252,-2.151 -1.781,-3.625 -0.508,-1.414 -0.935,-2.605 -0.875,-4.219 0.045,-1.195 0.34,-2.165 0.594,-3 0.07,-0.229 0.126,-0.397 1.031,-2.625 1.019,-2.51 1.14,-2.772 1.281,-3.062 0.646,-1.328 1.065,-1.896 0.969,-1.969 -0.133,-0.101 -1.156,0.832 -1.969,2.031 -0.393,0.58 -0.552,0.95 -1.5,3.219 -1.141,2.733 -1.205,2.902 -1.312,3.281 -0.244,0.864 -0.549,1.976 -0.532,3.469 0.018,1.505 0.354,2.657 0.532,3.187 0.341,1.022 0.738,1.661 1.531,2.938 1.035,1.666 1.976,2.792 2.625,3.562 0.706,0.838 1.464,1.659 2.5,2.501 1.195,0.97 1.644,1.061 1.969,1.062 0.888,0.002 1.54,-0.675 2.344,-1.531 C -3.335,7.418 -3.463,7.018 -2.281,5.5 -1.138,4.032 -0.762,4.077 -0.312,3.094 0.376,1.588 0.16,0.024 0,0" />
          </g>
          <g
             transform="translate(41.3283,71.9483)"
             id="g54">
            <path
               inkscape:connector-curvature="0"
               id="path56"
               style="fill:#49c3cc;fill-opacity:1;fill-rule:nonzero;stroke:none"
               d="m 0,0 c 1.334,0.913 2.571,1.725 3.688,2.438 1.627,1.038 2.342,1.445 3.395,1.604 0.483,0.072 1.2,0.118 2.396,-0.125 2.169,-0.442 3.057,-1.252 5.229,-2.313 2.453,-1.198 4.144,-2.024 6.229,-1.791 2.056,0.229 3.648,1.391 3.605,1.499 C 24.506,1.402 23.36,0.743 21.687,0.625 19.954,0.502 18.625,1.029 16.708,1.812 14.333,2.784 12.403,4.032 12.229,4.146 10.359,5.368 10.137,5.86 9.146,5.958 8.107,6.061 7.162,5.534 5.271,4.479 4.533,4.068 3.513,3.491 2.333,2.479 1.308,1.6 0.546,0.72 0,0" />
          </g>
          <g
             transform="translate(55.495,92.8025)"
             id="g58">
            <path
               inkscape:connector-curvature="0"
               id="path60"
               style="fill:#7c9cd1;fill-opacity:1;fill-rule:nonzero;stroke:none"
               d="M 0,0 C 0.091,-0.073 0.708,0.734 1.937,1.625 2.933,2.346 3.437,2.711 4.094,2.688 5.19,2.648 5.958,1.554 6.5,0.781 7.415,-0.523 7.666,-1.796 7.844,-2.75 7.947,-3.304 8.195,-4.851 7.906,-6.875 7.693,-8.368 7.281,-9.467 6.625,-11.219 c -0.719,-1.919 -1.068,-2.358 -1.313,-3.719 -0.273,-1.52 -0.192,-2.949 -0.031,-2.968 0.169,-0.02 0.28,1.514 1.094,3.843 0.493,1.409 0.56,1.155 1.594,3.719 0.332,0.825 0.866,2.19 1.406,3.938 0.29,0.938 0.436,1.408 0.469,1.719 C 10,-3.226 9.483,-2.092 8.719,-0.469 8.097,0.852 8.12,0.399 6.75,2.844 5.862,4.429 5.666,4.952 5.031,5.156 4.104,5.455 3.041,4.816 2.5,4.312 1.975,3.824 2.032,3.547 1.219,2.094 0.483,0.778 -0.086,0.069 0,0" />
          </g>
        </g>
      </g>
    </g>
    <g
       transform="matrix(0.35277777,0,0,-0.35277777,98.878575,141.22342)"
       inkscape:label="DrSavkovic_ZUB_Vektor"
       id="g92">
      <path
         inkscape:connector-curvature="0"
         id="path94"
         style="fill:#323237;fill-opacity:1;fill-rule:nonzero;stroke:none"
         d="m -101.78572,137.14286 h 40.500003 v 41.5 h -40.500003 z" />
      <g
         id="g96"
         transform="translate(20.892858,107.14286)">
        <g
           clip-path="url(#clipPath102)"
           id="g98">
          <g
             transform="translate(35.5833,2.6667)"
             id="g104">
            <path
               inkscape:connector-curvature="0"
               id="path106"
               style="fill:none;stroke:#f49524;stroke-width:1;stroke-linecap:butt;stroke-linejoin:miter;stroke-miterlimit:10;stroke-dasharray:none;stroke-opacity:1"
               d="m 0,0 h -30 c -1.375,0 -2.5,1.125 -2.5,2.5 v 30.833 c 0,1.375 1.125,2.5 2.5,2.5 H 0 c 1.375,0 2.5,-1.125 2.5,-2.5 V 2.5 C 2.5,1.125 1.375,0 0,0 Z" />
          </g>
          <g
             transform="translate(23.4688,23.6563)"
             id="g108">
            <path
               inkscape:connector-curvature="0"
               id="path110"
               style="fill:#ffffff;fill-opacity:1;fill-rule:nonzero;stroke:none"
               d="m 0,0 c -0.145,-0.021 -0.151,1.237 -1.031,2.75 -0.387,0.665 -0.445,0.524 -1.938,2.344 -0.97,1.182 -1.164,1.508 -1.812,2.093 -0.828,0.748 -1.242,1.122 -1.844,1.188 -1.002,0.11 -1.83,-0.686 -2.781,-1.625 -1.091,-1.077 -1.686,-2.084 -2.438,-3.375 -0.672,-1.155 -1.252,-2.151 -1.781,-3.625 -0.508,-1.414 -0.935,-2.605 -0.875,-4.219 0.045,-1.195 0.34,-2.165 0.594,-3 0.07,-0.229 0.126,-0.397 1.031,-2.625 1.019,-2.51 1.14,-2.772 1.281,-3.062 0.646,-1.328 1.065,-1.896 0.969,-1.969 -0.133,-0.101 -1.156,0.832 -1.969,2.031 -0.393,0.58 -0.552,0.95 -1.5,3.219 -1.141,2.733 -1.205,2.902 -1.312,3.281 -0.244,0.864 -0.549,1.976 -0.532,3.469 0.018,1.505 0.354,2.657 0.532,3.187 0.341,1.022 0.738,1.661 1.531,2.938 1.035,1.666 1.976,2.792 2.625,3.562 0.706,0.838 1.464,1.659 2.5,2.501 1.195,0.97 1.644,1.061 1.969,1.062 0.888,0.002 1.54,-0.675 2.344,-1.531 C -3.335,7.418 -3.463,7.018 -2.281,5.5 -1.138,4.032 -0.762,4.077 -0.312,3.094 0.376,1.588 0.16,0.024 0,0" />
          </g>
          <g
             transform="translate(9.9583,6.2083)"
             id="g112">
            <path
               inkscape:connector-curvature="0"
               id="path114"
               style="fill:#49c3cc;fill-opacity:1;fill-rule:nonzero;stroke:none"
               d="m 0,0 c 1.334,0.913 2.571,1.725 3.688,2.438 1.627,1.038 2.342,1.445 3.395,1.604 0.483,0.072 1.2,0.118 2.396,-0.125 2.169,-0.442 3.057,-1.252 5.229,-2.313 2.453,-1.198 4.144,-2.024 6.229,-1.791 2.056,0.229 3.648,1.391 3.605,1.499 C 24.506,1.402 23.36,0.743 21.687,0.625 19.954,0.502 18.625,1.029 16.708,1.812 14.333,2.784 12.403,4.032 12.229,4.146 10.359,5.368 10.137,5.86 9.146,5.958 8.107,6.061 7.162,5.534 5.271,4.479 4.533,4.068 3.513,3.491 2.333,2.479 1.308,1.6 0.546,0.72 0,0" />
          </g>
          <g
             transform="translate(24.125,27.0625)"
             id="g116">
            <path
               inkscape:connector-curvature="0"
               id="path118"
               style="fill:#7c9cd1;fill-opacity:1;fill-rule:nonzero;stroke:none"
               d="M 0,0 C 0.091,-0.073 0.708,0.734 1.937,1.625 2.933,2.346 3.437,2.711 4.094,2.688 5.19,2.648 5.958,1.554 6.5,0.781 7.415,-0.523 7.666,-1.796 7.844,-2.75 7.947,-3.304 8.195,-4.851 7.906,-6.875 7.693,-8.368 7.281,-9.467 6.625,-11.219 c -0.719,-1.919 -1.068,-2.358 -1.313,-3.719 -0.273,-1.52 -0.192,-2.949 -0.031,-2.968 0.169,-0.02 0.28,1.514 1.094,3.843 0.493,1.409 0.56,1.155 1.594,3.719 0.332,0.825 0.866,2.19 1.406,3.938 0.29,0.938 0.436,1.408 0.469,1.719 C 10,-3.226 9.483,-2.092 8.719,-0.469 8.097,0.852 8.12,0.399 6.75,2.844 5.862,4.429 5.666,4.952 5.031,5.156 4.104,5.455 3.041,4.816 2.5,4.312 1.975,3.824 2.032,3.547 1.219,2.094 0.483,0.778 -0.086,0.069 0,0" />
          </g>
        </g>
      </g>
    </g>
  </g>
</svg>
